<svg xmlns="http://www.w3.org/2000/svg" xmlns:xlink="http://www.w3.org/1999/xlink" width="500" zoomAndPan="magnify" viewBox="0 0 375 374.999991" height="500" preserveAspectRatio="xMidYMid meet" version="1.0"><defs><g/><clipPath id="2cdb7e953f"><path d="M 255 134 L 284 134 L 284 183 L 255 183 Z M 255 134 " clip-rule="nonzero"/></clipPath><clipPath id="d3ea80685e"><path d="M 247.53125 144.261719 L 278.40625 134.945312 L 290.320312 174.4375 L 259.445312 183.753906 Z M 247.53125 144.261719 " clip-rule="nonzero"/></clipPath><clipPath id="379eebd72c"><path d="M 247.53125 144.261719 L 278.40625 134.945312 L 290.320312 174.4375 L 259.445312 183.753906 Z M 247.53125 144.261719 " clip-rule="nonzero"/></clipPath><clipPath id="848fad5d11"><path d="M 247.53125 144.261719 L 278.40625 134.945312 L 290.320312 174.4375 L 259.445312 183.753906 Z M 247.53125 144.261719 " clip-rule="nonzero"/></clipPath><clipPath id="736d2ea308"><path d="M 255 139 L 279 139 L 279 183 L 255 183 Z M 255 139 " clip-rule="nonzero"/></clipPath><clipPath id="424dfd8944"><path d="M 247.53125 144.261719 L 278.40625 134.945312 L 290.320312 174.4375 L 259.445312 183.753906 Z M 247.53125 144.261719 " clip-rule="nonzero"/></clipPath><clipPath id="77c76f9517"><path d="M 247.53125 144.261719 L 278.40625 134.945312 L 290.320312 174.4375 L 259.445312 183.753906 Z M 247.53125 144.261719 " clip-rule="nonzero"/></clipPath><clipPath id="3380c8be79"><path d="M 247.53125 144.261719 L 278.40625 134.945312 L 290.320312 174.4375 L 259.445312 183.753906 Z M 247.53125 144.261719 " clip-rule="nonzero"/></clipPath><clipPath id="55a9e3440e"><path d="M 255 139 L 284 139 L 284 183 L 255 183 Z M 255 139 " clip-rule="nonzero"/></clipPath><clipPath id="a42a96d996"><path d="M 247.53125 144.261719 L 278.40625 134.945312 L 290.320312 174.4375 L 259.445312 183.753906 Z M 247.53125 144.261719 " clip-rule="nonzero"/></clipPath><clipPath id="4eb113122f"><path d="M 247.53125 144.261719 L 278.40625 134.945312 L 290.320312 174.4375 L 259.445312 183.753906 Z M 247.53125 144.261719 " clip-rule="nonzero"/></clipPath><clipPath id="00a1aaa77b"><path d="M 247.53125 144.261719 L 278.40625 134.945312 L 290.320312 174.4375 L 259.445312 183.753906 Z M 247.53125 144.261719 " clip-rule="nonzero"/></clipPath><clipPath id="91cf9c6bfb"><path d="M 262 180 L 263 180 L 263 183 L 262 183 Z M 262 180 " clip-rule="nonzero"/></clipPath><clipPath id="16e73f7cd7"><path d="M 247.53125 144.261719 L 278.40625 134.945312 L 290.320312 174.4375 L 259.445312 183.753906 Z M 247.53125 144.261719 " clip-rule="nonzero"/></clipPath><clipPath id="7f4d2a8c18"><path d="M 247.53125 144.261719 L 278.40625 134.945312 L 290.320312 174.4375 L 259.445312 183.753906 Z M 247.53125 144.261719 " clip-rule="nonzero"/></clipPath><clipPath id="8fd8701282"><path d="M 247.53125 144.261719 L 278.40625 134.945312 L 290.320312 174.4375 L 259.445312 183.753906 Z M 247.53125 144.261719 " clip-rule="nonzero"/></clipPath><clipPath id="c673dee0e8"><path d="M 276 134 L 281 134 L 281 155 L 276 155 Z M 276 134 " clip-rule="nonzero"/></clipPath><clipPath id="d036c7b62e"><path d="M 247.53125 144.261719 L 278.40625 134.945312 L 290.320312 174.4375 L 259.445312 183.753906 Z M 247.53125 144.261719 " clip-rule="nonzero"/></clipPath><clipPath id="c13fc4b2d1"><path d="M 247.53125 144.261719 L 278.40625 134.945312 L 290.320312 174.4375 L 259.445312 183.753906 Z M 247.53125 144.261719 " clip-rule="nonzero"/></clipPath><clipPath id="935c5d6325"><path d="M 247.53125 144.261719 L 278.40625 134.945312 L 290.320312 174.4375 L 259.445312 183.753906 Z M 247.53125 144.261719 " clip-rule="nonzero"/></clipPath><clipPath id="9e30b96547"><path d="M 278 141 L 284 141 L 284 171 L 278 171 Z M 278 141 " clip-rule="nonzero"/></clipPath><clipPath id="73aefcb172"><path d="M 247.53125 144.261719 L 278.40625 134.945312 L 290.320312 174.4375 L 259.445312 183.753906 Z M 247.53125 144.261719 " clip-rule="nonzero"/></clipPath><clipPath id="05e4e535f1"><path d="M 247.53125 144.261719 L 278.40625 134.945312 L 290.320312 174.4375 L 259.445312 183.753906 Z M 247.53125 144.261719 " clip-rule="nonzero"/></clipPath><clipPath id="dcf8ae26e1"><path d="M 247.53125 144.261719 L 278.40625 134.945312 L 290.320312 174.4375 L 259.445312 183.753906 Z M 247.53125 144.261719 " clip-rule="nonzero"/></clipPath><clipPath id="a47f36c955"><path d="M 264 180 L 268 180 L 268 181 L 264 181 Z M 264 180 " clip-rule="nonzero"/></clipPath><clipPath id="23cc43c2bc"><path d="M 247.53125 144.261719 L 278.40625 134.945312 L 290.320312 174.4375 L 259.445312 183.753906 Z M 247.53125 144.261719 " clip-rule="nonzero"/></clipPath><clipPath id="052e1e3ad1"><path d="M 247.53125 144.261719 L 278.40625 134.945312 L 290.320312 174.4375 L 259.445312 183.753906 Z M 247.53125 144.261719 " clip-rule="nonzero"/></clipPath><clipPath id="11a08621c3"><path d="M 247.53125 144.261719 L 278.40625 134.945312 L 290.320312 174.4375 L 259.445312 183.753906 Z M 247.53125 144.261719 " clip-rule="nonzero"/></clipPath><clipPath id="fd5d66143d"><path d="M 262 157 L 284 157 L 284 183 L 262 183 Z M 262 157 " clip-rule="nonzero"/></clipPath><clipPath id="5a5c917c05"><path d="M 247.53125 144.261719 L 278.40625 134.945312 L 290.320312 174.4375 L 259.445312 183.753906 Z M 247.53125 144.261719 " clip-rule="nonzero"/></clipPath><clipPath id="cd0d7ae927"><path d="M 247.53125 144.261719 L 278.40625 134.945312 L 290.320312 174.4375 L 259.445312 183.753906 Z M 247.53125 144.261719 " clip-rule="nonzero"/></clipPath><clipPath id="f21844c6ad"><path d="M 247.53125 144.261719 L 278.40625 134.945312 L 290.320312 174.4375 L 259.445312 183.753906 Z M 247.53125 144.261719 " clip-rule="nonzero"/></clipPath><clipPath id="d9e4489fc7"><path d="M 256 160 L 266 160 L 266 167 L 256 167 Z M 256 160 " clip-rule="nonzero"/></clipPath><clipPath id="0ff7ac0d5c"><path d="M 247.53125 144.261719 L 278.40625 134.945312 L 290.320312 174.4375 L 259.445312 183.753906 Z M 247.53125 144.261719 " clip-rule="nonzero"/></clipPath><clipPath id="9603ddb131"><path d="M 247.53125 144.261719 L 278.40625 134.945312 L 290.320312 174.4375 L 259.445312 183.753906 Z M 247.53125 144.261719 " clip-rule="nonzero"/></clipPath><clipPath id="cd7af1410b"><path d="M 247.53125 144.261719 L 278.40625 134.945312 L 290.320312 174.4375 L 259.445312 183.753906 Z M 247.53125 144.261719 " clip-rule="nonzero"/></clipPath><clipPath id="dafb9e6ee1"><path d="M 256 162 L 267 162 L 267 181 L 256 181 Z M 256 162 " clip-rule="nonzero"/></clipPath><clipPath id="1e97beafb0"><path d="M 247.53125 144.261719 L 278.40625 134.945312 L 290.320312 174.4375 L 259.445312 183.753906 Z M 247.53125 144.261719 " clip-rule="nonzero"/></clipPath><clipPath id="25bb4d0e3e"><path d="M 247.53125 144.261719 L 278.40625 134.945312 L 290.320312 174.4375 L 259.445312 183.753906 Z M 247.53125 144.261719 " clip-rule="nonzero"/></clipPath><clipPath id="73be882fbf"><path d="M 247.53125 144.261719 L 278.40625 134.945312 L 290.320312 174.4375 L 259.445312 183.753906 Z M 247.53125 144.261719 " clip-rule="nonzero"/></clipPath><clipPath id="44ca39af8a"><path d="M 265 139 L 277 139 L 277 163 L 265 163 Z M 265 139 " clip-rule="nonzero"/></clipPath><clipPath id="baba62daaf"><path d="M 247.53125 144.261719 L 278.40625 134.945312 L 290.320312 174.4375 L 259.445312 183.753906 Z M 247.53125 144.261719 " clip-rule="nonzero"/></clipPath><clipPath id="bb54e2c1c0"><path d="M 247.53125 144.261719 L 278.40625 134.945312 L 290.320312 174.4375 L 259.445312 183.753906 Z M 247.53125 144.261719 " clip-rule="nonzero"/></clipPath><clipPath id="6248017895"><path d="M 247.53125 144.261719 L 278.40625 134.945312 L 290.320312 174.4375 L 259.445312 183.753906 Z M 247.53125 144.261719 " clip-rule="nonzero"/></clipPath><clipPath id="cacf20534c"><path d="M 266 160 L 269 160 L 269 164 L 266 164 Z M 266 160 " clip-rule="nonzero"/></clipPath><clipPath id="245863c71a"><path d="M 247.53125 144.261719 L 278.40625 134.945312 L 290.320312 174.4375 L 259.445312 183.753906 Z M 247.53125 144.261719 " clip-rule="nonzero"/></clipPath><clipPath id="ba687e8e6b"><path d="M 247.53125 144.261719 L 278.40625 134.945312 L 290.320312 174.4375 L 259.445312 183.753906 Z M 247.53125 144.261719 " clip-rule="nonzero"/></clipPath><clipPath id="27e144b9de"><path d="M 247.53125 144.261719 L 278.40625 134.945312 L 290.320312 174.4375 L 259.445312 183.753906 Z M 247.53125 144.261719 " clip-rule="nonzero"/></clipPath><clipPath id="c031af85ca"><path d="M 262 174 L 264 174 L 264 181 L 262 181 Z M 262 174 " clip-rule="nonzero"/></clipPath><clipPath id="10b57b0586"><path d="M 247.53125 144.261719 L 278.40625 134.945312 L 290.320312 174.4375 L 259.445312 183.753906 Z M 247.53125 144.261719 " clip-rule="nonzero"/></clipPath><clipPath id="19563070f9"><path d="M 247.53125 144.261719 L 278.40625 134.945312 L 290.320312 174.4375 L 259.445312 183.753906 Z M 247.53125 144.261719 " clip-rule="nonzero"/></clipPath><clipPath id="9660403c9f"><path d="M 247.53125 144.261719 L 278.40625 134.945312 L 290.320312 174.4375 L 259.445312 183.753906 Z M 247.53125 144.261719 " clip-rule="nonzero"/></clipPath><clipPath id="94c91ebc59"><path d="M 268 140 L 282 140 L 282 172 L 268 172 Z M 268 140 " clip-rule="nonzero"/></clipPath><clipPath id="188beeab13"><path d="M 247.53125 144.261719 L 278.40625 134.945312 L 290.320312 174.4375 L 259.445312 183.753906 Z M 247.53125 144.261719 " clip-rule="nonzero"/></clipPath><clipPath id="3491b03cfc"><path d="M 247.53125 144.261719 L 278.40625 134.945312 L 290.320312 174.4375 L 259.445312 183.753906 Z M 247.53125 144.261719 " clip-rule="nonzero"/></clipPath><clipPath id="42f7ef02f6"><path d="M 247.53125 144.261719 L 278.40625 134.945312 L 290.320312 174.4375 L 259.445312 183.753906 Z M 247.53125 144.261719 " clip-rule="nonzero"/></clipPath><clipPath id="c3868508be"><path d="M 263 154 L 282 154 L 282 177 L 263 177 Z M 263 154 " clip-rule="nonzero"/></clipPath><clipPath id="20567c2e3d"><path d="M 247.53125 144.261719 L 278.40625 134.945312 L 290.320312 174.4375 L 259.445312 183.753906 Z M 247.53125 144.261719 " clip-rule="nonzero"/></clipPath><clipPath id="8a724f657d"><path d="M 247.53125 144.261719 L 278.40625 134.945312 L 290.320312 174.4375 L 259.445312 183.753906 Z M 247.53125 144.261719 " clip-rule="nonzero"/></clipPath><clipPath id="277bd932f5"><path d="M 247.53125 144.261719 L 278.40625 134.945312 L 290.320312 174.4375 L 259.445312 183.753906 Z M 247.53125 144.261719 " clip-rule="nonzero"/></clipPath><clipPath id="f8fd37ed10"><path d="M 262 168 L 281 168 L 281 181 L 262 181 Z M 262 168 " clip-rule="nonzero"/></clipPath><clipPath id="5b2dd08ec1"><path d="M 247.53125 144.261719 L 278.40625 134.945312 L 290.320312 174.4375 L 259.445312 183.753906 Z M 247.53125 144.261719 " clip-rule="nonzero"/></clipPath><clipPath id="bc9578605c"><path d="M 247.53125 144.261719 L 278.40625 134.945312 L 290.320312 174.4375 L 259.445312 183.753906 Z M 247.53125 144.261719 " clip-rule="nonzero"/></clipPath><clipPath id="eb55f07050"><path d="M 247.53125 144.261719 L 278.40625 134.945312 L 290.320312 174.4375 L 259.445312 183.753906 Z M 247.53125 144.261719 " clip-rule="nonzero"/></clipPath><clipPath id="1383cfbc9d"><path d="M 257 137 L 278 137 L 278 161 L 257 161 Z M 257 137 " clip-rule="nonzero"/></clipPath><clipPath id="97c125dd9c"><path d="M 247.53125 144.261719 L 278.40625 134.945312 L 290.320312 174.4375 L 259.445312 183.753906 Z M 247.53125 144.261719 " clip-rule="nonzero"/></clipPath><clipPath id="a4345c19d0"><path d="M 247.53125 144.261719 L 278.40625 134.945312 L 290.320312 174.4375 L 259.445312 183.753906 Z M 247.53125 144.261719 " clip-rule="nonzero"/></clipPath><clipPath id="a38bea2a9b"><path d="M 247.53125 144.261719 L 278.40625 134.945312 L 290.320312 174.4375 L 259.445312 183.753906 Z M 247.53125 144.261719 " clip-rule="nonzero"/></clipPath><clipPath id="cb5adec318"><path d="M 257 141 L 276 141 L 276 165 L 257 165 Z M 257 141 " clip-rule="nonzero"/></clipPath><clipPath id="8b96a587bd"><path d="M 247.53125 144.261719 L 278.40625 134.945312 L 290.320312 174.4375 L 259.445312 183.753906 Z M 247.53125 144.261719 " clip-rule="nonzero"/></clipPath><clipPath id="298854ed06"><path d="M 247.53125 144.261719 L 278.40625 134.945312 L 290.320312 174.4375 L 259.445312 183.753906 Z M 247.53125 144.261719 " clip-rule="nonzero"/></clipPath><clipPath id="1247695324"><path d="M 247.53125 144.261719 L 278.40625 134.945312 L 290.320312 174.4375 L 259.445312 183.753906 Z M 247.53125 144.261719 " clip-rule="nonzero"/></clipPath><clipPath id="6b06c545c5"><path d="M 257 162 L 258 162 L 258 166 L 257 166 Z M 257 162 " clip-rule="nonzero"/></clipPath><clipPath id="cd8656ef23"><path d="M 247.53125 144.261719 L 278.40625 134.945312 L 290.320312 174.4375 L 259.445312 183.753906 Z M 247.53125 144.261719 " clip-rule="nonzero"/></clipPath><clipPath id="ae4c32afe9"><path d="M 247.53125 144.261719 L 278.40625 134.945312 L 290.320312 174.4375 L 259.445312 183.753906 Z M 247.53125 144.261719 " clip-rule="nonzero"/></clipPath><clipPath id="52eeb5ae7c"><path d="M 247.53125 144.261719 L 278.40625 134.945312 L 290.320312 174.4375 L 259.445312 183.753906 Z M 247.53125 144.261719 " clip-rule="nonzero"/></clipPath><clipPath id="38ec116d23"><path d="M 257 164 L 264 164 L 264 175 L 257 175 Z M 257 164 " clip-rule="nonzero"/></clipPath><clipPath id="3048e4232c"><path d="M 247.53125 144.261719 L 278.40625 134.945312 L 290.320312 174.4375 L 259.445312 183.753906 Z M 247.53125 144.261719 " clip-rule="nonzero"/></clipPath><clipPath id="7e647367d2"><path d="M 247.53125 144.261719 L 278.40625 134.945312 L 290.320312 174.4375 L 259.445312 183.753906 Z M 247.53125 144.261719 " clip-rule="nonzero"/></clipPath><clipPath id="0f5fd3a0ae"><path d="M 247.53125 144.261719 L 278.40625 134.945312 L 290.320312 174.4375 L 259.445312 183.753906 Z M 247.53125 144.261719 " clip-rule="nonzero"/></clipPath><clipPath id="9a3420bd82"><path d="M 263 173 L 264 173 L 264 175 L 263 175 Z M 263 173 " clip-rule="nonzero"/></clipPath><clipPath id="975709c3a7"><path d="M 247.53125 144.261719 L 278.40625 134.945312 L 290.320312 174.4375 L 259.445312 183.753906 Z M 247.53125 144.261719 " clip-rule="nonzero"/></clipPath><clipPath id="bc98e992a4"><path d="M 247.53125 144.261719 L 278.40625 134.945312 L 290.320312 174.4375 L 259.445312 183.753906 Z M 247.53125 144.261719 " clip-rule="nonzero"/></clipPath><clipPath id="f6b6344412"><path d="M 247.53125 144.261719 L 278.40625 134.945312 L 290.320312 174.4375 L 259.445312 183.753906 Z M 247.53125 144.261719 " clip-rule="nonzero"/></clipPath><clipPath id="fd383a6b63"><path d="M 264 161 L 267 161 L 267 164 L 264 164 Z M 264 161 " clip-rule="nonzero"/></clipPath><clipPath id="3ccb682dea"><path d="M 247.53125 144.261719 L 278.40625 134.945312 L 290.320312 174.4375 L 259.445312 183.753906 Z M 247.53125 144.261719 " clip-rule="nonzero"/></clipPath><clipPath id="d7eb5801b0"><path d="M 247.53125 144.261719 L 278.40625 134.945312 L 290.320312 174.4375 L 259.445312 183.753906 Z M 247.53125 144.261719 " clip-rule="nonzero"/></clipPath><clipPath id="109477f720"><path d="M 247.53125 144.261719 L 278.40625 134.945312 L 290.320312 174.4375 L 259.445312 183.753906 Z M 247.53125 144.261719 " clip-rule="nonzero"/></clipPath><clipPath id="13bac26d6d"><path d="M 265 162 L 268 162 L 268 165 L 265 165 Z M 265 162 " clip-rule="nonzero"/></clipPath><clipPath id="00b78e6c7c"><path d="M 247.53125 144.261719 L 278.40625 134.945312 L 290.320312 174.4375 L 259.445312 183.753906 Z M 247.53125 144.261719 " clip-rule="nonzero"/></clipPath><clipPath id="eb46d7a1b6"><path d="M 247.53125 144.261719 L 278.40625 134.945312 L 290.320312 174.4375 L 259.445312 183.753906 Z M 247.53125 144.261719 " clip-rule="nonzero"/></clipPath><clipPath id="9c2ce30315"><path d="M 247.53125 144.261719 L 278.40625 134.945312 L 290.320312 174.4375 L 259.445312 183.753906 Z M 247.53125 144.261719 " clip-rule="nonzero"/></clipPath><clipPath id="257815e77d"><path d="M 266 163 L 268 163 L 268 165 L 266 165 Z M 266 163 " clip-rule="nonzero"/></clipPath><clipPath id="1e1cf17af1"><path d="M 247.53125 144.261719 L 278.40625 134.945312 L 290.320312 174.4375 L 259.445312 183.753906 Z M 247.53125 144.261719 " clip-rule="nonzero"/></clipPath><clipPath id="489ebe92f2"><path d="M 247.53125 144.261719 L 278.40625 134.945312 L 290.320312 174.4375 L 259.445312 183.753906 Z M 247.53125 144.261719 " clip-rule="nonzero"/></clipPath><clipPath id="306265fef4"><path d="M 247.53125 144.261719 L 278.40625 134.945312 L 290.320312 174.4375 L 259.445312 183.753906 Z M 247.53125 144.261719 " clip-rule="nonzero"/></clipPath><clipPath id="9b2b12b767"><path d="M 262 152 L 266 152 L 266 163 L 262 163 Z M 262 152 " clip-rule="nonzero"/></clipPath><clipPath id="26ec973aed"><path d="M 247.53125 144.261719 L 278.40625 134.945312 L 290.320312 174.4375 L 259.445312 183.753906 Z M 247.53125 144.261719 " clip-rule="nonzero"/></clipPath><clipPath id="7277802b2d"><path d="M 247.53125 144.261719 L 278.40625 134.945312 L 290.320312 174.4375 L 259.445312 183.753906 Z M 247.53125 144.261719 " clip-rule="nonzero"/></clipPath><clipPath id="14152e98ad"><path d="M 247.53125 144.261719 L 278.40625 134.945312 L 290.320312 174.4375 L 259.445312 183.753906 Z M 247.53125 144.261719 " clip-rule="nonzero"/></clipPath><clipPath id="1f242bfc8c"><path d="M 269 153 L 272 153 L 272 157 L 269 157 Z M 269 153 " clip-rule="nonzero"/></clipPath><clipPath id="8979dcb3f7"><path d="M 247.53125 144.261719 L 278.40625 134.945312 L 290.320312 174.4375 L 259.445312 183.753906 Z M 247.53125 144.261719 " clip-rule="nonzero"/></clipPath><clipPath id="e5453ff9c7"><path d="M 247.53125 144.261719 L 278.40625 134.945312 L 290.320312 174.4375 L 259.445312 183.753906 Z M 247.53125 144.261719 " clip-rule="nonzero"/></clipPath><clipPath id="b526284efa"><path d="M 247.53125 144.261719 L 278.40625 134.945312 L 290.320312 174.4375 L 259.445312 183.753906 Z M 247.53125 144.261719 " clip-rule="nonzero"/></clipPath><clipPath id="cfcb863c55"><path d="M 268 147 L 270 147 L 270 155 L 268 155 Z M 268 147 " clip-rule="nonzero"/></clipPath><clipPath id="d791c00119"><path d="M 247.53125 144.261719 L 278.40625 134.945312 L 290.320312 174.4375 L 259.445312 183.753906 Z M 247.53125 144.261719 " clip-rule="nonzero"/></clipPath><clipPath id="ea2d929205"><path d="M 247.53125 144.261719 L 278.40625 134.945312 L 290.320312 174.4375 L 259.445312 183.753906 Z M 247.53125 144.261719 " clip-rule="nonzero"/></clipPath><clipPath id="8edd3d351b"><path d="M 247.53125 144.261719 L 278.40625 134.945312 L 290.320312 174.4375 L 259.445312 183.753906 Z M 247.53125 144.261719 " clip-rule="nonzero"/></clipPath><clipPath id="99b5947ff8"><path d="M 273 144 L 276 144 L 276 148 L 273 148 Z M 273 144 " clip-rule="nonzero"/></clipPath><clipPath id="dcd0d4ea24"><path d="M 247.53125 144.261719 L 278.40625 134.945312 L 290.320312 174.4375 L 259.445312 183.753906 Z M 247.53125 144.261719 " clip-rule="nonzero"/></clipPath><clipPath id="8f853577f4"><path d="M 247.53125 144.261719 L 278.40625 134.945312 L 290.320312 174.4375 L 259.445312 183.753906 Z M 247.53125 144.261719 " clip-rule="nonzero"/></clipPath><clipPath id="ced6b2c0e5"><path d="M 247.53125 144.261719 L 278.40625 134.945312 L 290.320312 174.4375 L 259.445312 183.753906 Z M 247.53125 144.261719 " clip-rule="nonzero"/></clipPath><clipPath id="8ddeaad6ac"><path d="M 273 142 L 274 142 L 274 145 L 273 145 Z M 273 142 " clip-rule="nonzero"/></clipPath><clipPath id="c0be429dd3"><path d="M 247.53125 144.261719 L 278.40625 134.945312 L 290.320312 174.4375 L 259.445312 183.753906 Z M 247.53125 144.261719 " clip-rule="nonzero"/></clipPath><clipPath id="870a6326e1"><path d="M 247.53125 144.261719 L 278.40625 134.945312 L 290.320312 174.4375 L 259.445312 183.753906 Z M 247.53125 144.261719 " clip-rule="nonzero"/></clipPath><clipPath id="9ec4af087a"><path d="M 247.53125 144.261719 L 278.40625 134.945312 L 290.320312 174.4375 L 259.445312 183.753906 Z M 247.53125 144.261719 " clip-rule="nonzero"/></clipPath><clipPath id="9f9376e3c2"><path d="M 277 147 L 279 147 L 279 148 L 277 148 Z M 277 147 " clip-rule="nonzero"/></clipPath><clipPath id="77896160b1"><path d="M 247.53125 144.261719 L 278.40625 134.945312 L 290.320312 174.4375 L 259.445312 183.753906 Z M 247.53125 144.261719 " clip-rule="nonzero"/></clipPath><clipPath id="ff863638e9"><path d="M 247.53125 144.261719 L 278.40625 134.945312 L 290.320312 174.4375 L 259.445312 183.753906 Z M 247.53125 144.261719 " clip-rule="nonzero"/></clipPath><clipPath id="5d64caaeb1"><path d="M 247.53125 144.261719 L 278.40625 134.945312 L 290.320312 174.4375 L 259.445312 183.753906 Z M 247.53125 144.261719 " clip-rule="nonzero"/></clipPath><clipPath id="40bac06b87"><path d="M 274 148 L 275 148 L 275 150 L 274 150 Z M 274 148 " clip-rule="nonzero"/></clipPath><clipPath id="b0db82008c"><path d="M 247.53125 144.261719 L 278.40625 134.945312 L 290.320312 174.4375 L 259.445312 183.753906 Z M 247.53125 144.261719 " clip-rule="nonzero"/></clipPath><clipPath id="bac3060567"><path d="M 247.53125 144.261719 L 278.40625 134.945312 L 290.320312 174.4375 L 259.445312 183.753906 Z M 247.53125 144.261719 " clip-rule="nonzero"/></clipPath><clipPath id="c35254175d"><path d="M 247.53125 144.261719 L 278.40625 134.945312 L 290.320312 174.4375 L 259.445312 183.753906 Z M 247.53125 144.261719 " clip-rule="nonzero"/></clipPath><clipPath id="9ea2b0f39a"><path d="M 274 147 L 278 147 L 278 150 L 274 150 Z M 274 147 " clip-rule="nonzero"/></clipPath><clipPath id="2f3bf84102"><path d="M 247.53125 144.261719 L 278.40625 134.945312 L 290.320312 174.4375 L 259.445312 183.753906 Z M 247.53125 144.261719 " clip-rule="nonzero"/></clipPath><clipPath id="918a1fe18b"><path d="M 247.53125 144.261719 L 278.40625 134.945312 L 290.320312 174.4375 L 259.445312 183.753906 Z M 247.53125 144.261719 " clip-rule="nonzero"/></clipPath><clipPath id="7ce4b2785f"><path d="M 247.53125 144.261719 L 278.40625 134.945312 L 290.320312 174.4375 L 259.445312 183.753906 Z M 247.53125 144.261719 " clip-rule="nonzero"/></clipPath><clipPath id="656cc41cbb"><path d="M 281 155 L 283 155 L 283 159 L 281 159 Z M 281 155 " clip-rule="nonzero"/></clipPath><clipPath id="069f553f95"><path d="M 247.53125 144.261719 L 278.40625 134.945312 L 290.320312 174.4375 L 259.445312 183.753906 Z M 247.53125 144.261719 " clip-rule="nonzero"/></clipPath><clipPath id="0e03304bc0"><path d="M 247.53125 144.261719 L 278.40625 134.945312 L 290.320312 174.4375 L 259.445312 183.753906 Z M 247.53125 144.261719 " clip-rule="nonzero"/></clipPath><clipPath id="0a16ce598b"><path d="M 247.53125 144.261719 L 278.40625 134.945312 L 290.320312 174.4375 L 259.445312 183.753906 Z M 247.53125 144.261719 " clip-rule="nonzero"/></clipPath><clipPath id="56f79d2f6d"><path d="M 268 158 L 270 158 L 270 161 L 268 161 Z M 268 158 " clip-rule="nonzero"/></clipPath><clipPath id="bf9ad4bf85"><path d="M 247.53125 144.261719 L 278.40625 134.945312 L 290.320312 174.4375 L 259.445312 183.753906 Z M 247.53125 144.261719 " clip-rule="nonzero"/></clipPath><clipPath id="4361d9b65c"><path d="M 247.53125 144.261719 L 278.40625 134.945312 L 290.320312 174.4375 L 259.445312 183.753906 Z M 247.53125 144.261719 " clip-rule="nonzero"/></clipPath><clipPath id="5b950b8270"><path d="M 247.53125 144.261719 L 278.40625 134.945312 L 290.320312 174.4375 L 259.445312 183.753906 Z M 247.53125 144.261719 " clip-rule="nonzero"/></clipPath><clipPath id="56c787be39"><path d="M 268 157 L 282 157 L 282 161 L 268 161 Z M 268 157 " clip-rule="nonzero"/></clipPath><clipPath id="2d745a39d6"><path d="M 247.53125 144.261719 L 278.40625 134.945312 L 290.320312 174.4375 L 259.445312 183.753906 Z M 247.53125 144.261719 " clip-rule="nonzero"/></clipPath><clipPath id="55d62fb7d1"><path d="M 247.53125 144.261719 L 278.40625 134.945312 L 290.320312 174.4375 L 259.445312 183.753906 Z M 247.53125 144.261719 " clip-rule="nonzero"/></clipPath><clipPath id="a3c09c0eca"><path d="M 247.53125 144.261719 L 278.40625 134.945312 L 290.320312 174.4375 L 259.445312 183.753906 Z M 247.53125 144.261719 " clip-rule="nonzero"/></clipPath><clipPath id="3640617d0f"><path d="M 280 157 L 282 157 L 282 159 L 280 159 Z M 280 157 " clip-rule="nonzero"/></clipPath><clipPath id="567f5a5bca"><path d="M 247.53125 144.261719 L 278.40625 134.945312 L 290.320312 174.4375 L 259.445312 183.753906 Z M 247.53125 144.261719 " clip-rule="nonzero"/></clipPath><clipPath id="b437629c6b"><path d="M 247.53125 144.261719 L 278.40625 134.945312 L 290.320312 174.4375 L 259.445312 183.753906 Z M 247.53125 144.261719 " clip-rule="nonzero"/></clipPath><clipPath id="44ec05ce81"><path d="M 247.53125 144.261719 L 278.40625 134.945312 L 290.320312 174.4375 L 259.445312 183.753906 Z M 247.53125 144.261719 " clip-rule="nonzero"/></clipPath><clipPath id="27f796c204"><path d="M 269 167 L 280 167 L 280 169 L 269 169 Z M 269 167 " clip-rule="nonzero"/></clipPath><clipPath id="d12e1c4556"><path d="M 247.53125 144.261719 L 278.40625 134.945312 L 290.320312 174.4375 L 259.445312 183.753906 Z M 247.53125 144.261719 " clip-rule="nonzero"/></clipPath><clipPath id="23bbbf95cf"><path d="M 247.53125 144.261719 L 278.40625 134.945312 L 290.320312 174.4375 L 259.445312 183.753906 Z M 247.53125 144.261719 " clip-rule="nonzero"/></clipPath><clipPath id="21ba962198"><path d="M 247.53125 144.261719 L 278.40625 134.945312 L 290.320312 174.4375 L 259.445312 183.753906 Z M 247.53125 144.261719 " clip-rule="nonzero"/></clipPath><clipPath id="0fe9eee149"><path d="M 264 167 L 281 167 L 281 172 L 264 172 Z M 264 167 " clip-rule="nonzero"/></clipPath><clipPath id="af39013253"><path d="M 247.53125 144.261719 L 278.40625 134.945312 L 290.320312 174.4375 L 259.445312 183.753906 Z M 247.53125 144.261719 " clip-rule="nonzero"/></clipPath><clipPath id="5354a0986e"><path d="M 247.53125 144.261719 L 278.40625 134.945312 L 290.320312 174.4375 L 259.445312 183.753906 Z M 247.53125 144.261719 " clip-rule="nonzero"/></clipPath><clipPath id="1e99adb115"><path d="M 247.53125 144.261719 L 278.40625 134.945312 L 290.320312 174.4375 L 259.445312 183.753906 Z M 247.53125 144.261719 " clip-rule="nonzero"/></clipPath><clipPath id="6fb0b89f76"><path d="M 264 169 L 265 169 L 265 172 L 264 172 Z M 264 169 " clip-rule="nonzero"/></clipPath><clipPath id="cef6a10017"><path d="M 247.53125 144.261719 L 278.40625 134.945312 L 290.320312 174.4375 L 259.445312 183.753906 Z M 247.53125 144.261719 " clip-rule="nonzero"/></clipPath><clipPath id="4f9ce34b74"><path d="M 247.53125 144.261719 L 278.40625 134.945312 L 290.320312 174.4375 L 259.445312 183.753906 Z M 247.53125 144.261719 " clip-rule="nonzero"/></clipPath><clipPath id="6366072045"><path d="M 247.53125 144.261719 L 278.40625 134.945312 L 290.320312 174.4375 L 259.445312 183.753906 Z M 247.53125 144.261719 " clip-rule="nonzero"/></clipPath><clipPath id="58b808d5c3"><path d="M 262 134 L 279 134 L 279 183 L 262 183 Z M 262 134 " clip-rule="nonzero"/></clipPath><clipPath id="fb8cb91a7e"><path d="M 247.53125 144.261719 L 278.40625 134.945312 L 290.320312 174.4375 L 259.445312 183.753906 Z M 247.53125 144.261719 " clip-rule="nonzero"/></clipPath><clipPath id="3ade582aeb"><path d="M 247.53125 144.261719 L 278.40625 134.945312 L 290.320312 174.4375 L 259.445312 183.753906 Z M 247.53125 144.261719 " clip-rule="nonzero"/></clipPath><clipPath id="75ef1a2b8b"><path d="M 247.53125 144.261719 L 278.40625 134.945312 L 290.320312 174.4375 L 259.445312 183.753906 Z M 247.53125 144.261719 " clip-rule="nonzero"/></clipPath><clipPath id="9fa06b9ea4"><path d="M 271 150 L 276 150 L 276 158 L 271 158 Z M 271 150 " clip-rule="nonzero"/></clipPath><clipPath id="06d813376a"><path d="M 247.53125 144.261719 L 278.40625 134.945312 L 290.320312 174.4375 L 259.445312 183.753906 Z M 247.53125 144.261719 " clip-rule="nonzero"/></clipPath><clipPath id="1a1b4e405b"><path d="M 247.53125 144.261719 L 278.40625 134.945312 L 290.320312 174.4375 L 259.445312 183.753906 Z M 247.53125 144.261719 " clip-rule="nonzero"/></clipPath><clipPath id="6c207502e1"><path d="M 247.53125 144.261719 L 278.40625 134.945312 L 290.320312 174.4375 L 259.445312 183.753906 Z M 247.53125 144.261719 " clip-rule="nonzero"/></clipPath><clipPath id="6c6e85c7ba"><path d="M 268 159 L 274 159 L 274 168 L 268 168 Z M 268 159 " clip-rule="nonzero"/></clipPath><clipPath id="9a833110c7"><path d="M 247.53125 144.261719 L 278.40625 134.945312 L 290.320312 174.4375 L 259.445312 183.753906 Z M 247.53125 144.261719 " clip-rule="nonzero"/></clipPath><clipPath id="706b6642a7"><path d="M 247.53125 144.261719 L 278.40625 134.945312 L 290.320312 174.4375 L 259.445312 183.753906 Z M 247.53125 144.261719 " clip-rule="nonzero"/></clipPath><clipPath id="ad0614de31"><path d="M 247.53125 144.261719 L 278.40625 134.945312 L 290.320312 174.4375 L 259.445312 183.753906 Z M 247.53125 144.261719 " clip-rule="nonzero"/></clipPath><clipPath id="2e2dfe1e31"><path d="M 266 162 L 270 162 L 270 168 L 266 168 Z M 266 162 " clip-rule="nonzero"/></clipPath><clipPath id="29456ca392"><path d="M 247.53125 144.261719 L 278.40625 134.945312 L 290.320312 174.4375 L 259.445312 183.753906 Z M 247.53125 144.261719 " clip-rule="nonzero"/></clipPath><clipPath id="f10c892e28"><path d="M 247.53125 144.261719 L 278.40625 134.945312 L 290.320312 174.4375 L 259.445312 183.753906 Z M 247.53125 144.261719 " clip-rule="nonzero"/></clipPath><clipPath id="20011af182"><path d="M 247.53125 144.261719 L 278.40625 134.945312 L 290.320312 174.4375 L 259.445312 183.753906 Z M 247.53125 144.261719 " clip-rule="nonzero"/></clipPath><clipPath id="19cd36b943"><path d="M 270 169 L 272 169 L 272 171 L 270 171 Z M 270 169 " clip-rule="nonzero"/></clipPath><clipPath id="efa8adb7c6"><path d="M 247.53125 144.261719 L 278.40625 134.945312 L 290.320312 174.4375 L 259.445312 183.753906 Z M 247.53125 144.261719 " clip-rule="nonzero"/></clipPath><clipPath id="dec6f645c6"><path d="M 247.53125 144.261719 L 278.40625 134.945312 L 290.320312 174.4375 L 259.445312 183.753906 Z M 247.53125 144.261719 " clip-rule="nonzero"/></clipPath><clipPath id="c53d1905d6"><path d="M 247.53125 144.261719 L 278.40625 134.945312 L 290.320312 174.4375 L 259.445312 183.753906 Z M 247.53125 144.261719 " clip-rule="nonzero"/></clipPath><clipPath id="e6165674e1"><path d="M 265 169 L 273 169 L 273 178 L 265 178 Z M 265 169 " clip-rule="nonzero"/></clipPath><clipPath id="2a57cec767"><path d="M 247.53125 144.261719 L 278.40625 134.945312 L 290.320312 174.4375 L 259.445312 183.753906 Z M 247.53125 144.261719 " clip-rule="nonzero"/></clipPath><clipPath id="3e10d83f6e"><path d="M 247.53125 144.261719 L 278.40625 134.945312 L 290.320312 174.4375 L 259.445312 183.753906 Z M 247.53125 144.261719 " clip-rule="nonzero"/></clipPath><clipPath id="c8200bee2f"><path d="M 247.53125 144.261719 L 278.40625 134.945312 L 290.320312 174.4375 L 259.445312 183.753906 Z M 247.53125 144.261719 " clip-rule="nonzero"/></clipPath><clipPath id="35a871427d"><path d="M 264 173 L 274 173 L 274 179 L 264 179 Z M 264 173 " clip-rule="nonzero"/></clipPath><clipPath id="af0f351eeb"><path d="M 247.53125 144.261719 L 278.40625 134.945312 L 290.320312 174.4375 L 259.445312 183.753906 Z M 247.53125 144.261719 " clip-rule="nonzero"/></clipPath><clipPath id="e7d4fb2240"><path d="M 247.53125 144.261719 L 278.40625 134.945312 L 290.320312 174.4375 L 259.445312 183.753906 Z M 247.53125 144.261719 " clip-rule="nonzero"/></clipPath><clipPath id="f868a9fe9b"><path d="M 247.53125 144.261719 L 278.40625 134.945312 L 290.320312 174.4375 L 259.445312 183.753906 Z M 247.53125 144.261719 " clip-rule="nonzero"/></clipPath></defs><path stroke-linecap="butt" transform="matrix(1.740097, 0, 0, 1.740097, 3.150571, 146.429873)" fill="none" stroke-linejoin="miter" d="M 41.759639 21.020629 L 41.759639 27.490275 L 54.730358 27.490275 L 54.730358 33.919513 L 41.759639 33.919513 L 41.759639 44.001115 L 33.442486 44.001115 L 33.442486 14.602615 L 56.492562 14.602615 L 56.492562 21.020629 Z M 70.949369 44.584775 C 67.840257 44.584775 65.04318 43.92928 62.562625 42.616045 C 60.088805 41.296076 58.142524 39.475506 56.728271 37.149846 C 55.311773 34.826431 54.604647 32.208941 54.604647 29.295131 C 54.604647 26.383566 55.311773 23.766076 56.728271 21.440415 C 58.142524 19.117 60.088805 17.298675 62.562625 15.98544 C 65.04318 14.667716 67.840257 14.007731 70.949369 14.007731 C 74.053991 14.007731 76.842089 14.667716 79.318154 15.98544 C 81.798708 17.298675 83.747235 19.117 85.161487 21.440415 C 86.577985 23.766076 87.285111 26.383566 87.285111 29.295131 C 87.285111 32.208941 86.577985 34.826431 85.161487 37.149846 C 83.747235 39.475506 81.798708 41.296076 79.318154 42.616045 C 76.842089 43.92928 74.053991 44.584775 70.949369 44.584775 Z M 70.949369 37.704323 C 72.433212 37.704323 73.77563 37.356372 74.978867 36.658225 C 76.182104 35.953343 77.133919 34.965611 77.829821 33.695028 C 78.534703 32.415466 78.887143 30.949582 78.887143 29.295131 C 78.887143 27.647414 78.534703 26.188264 77.829821 24.917681 C 77.133919 23.638119 76.182104 22.650387 74.978867 21.954485 C 73.77563 21.249604 72.433212 20.897163 70.949369 20.897163 C 69.467771 20.897163 68.120863 21.249604 66.910891 21.954485 C 65.707654 22.650387 64.753595 23.638119 64.048713 24.917681 C 63.352811 26.188264 63.002615 27.647414 63.002615 29.295131 C 63.002615 30.949582 63.352811 32.415466 64.048713 33.695028 C 64.753595 34.965611 65.707654 35.953343 66.910891 36.658225 C 68.120863 37.356372 69.467771 37.704323 70.949369 37.704323 Z M 102.197622 44.584775 C 99.08851 44.584775 96.291433 43.92928 93.810878 42.616045 C 91.334813 41.296076 89.390777 39.475506 87.976524 37.149846 C 86.560026 34.826431 85.8529 32.208941 85.8529 29.295131 C 85.8529 26.383566 86.560026 23.766076 87.976524 21.440415 C 89.390777 19.117 91.334813 17.298675 93.810878 15.98544 C 96.291433 14.667716 99.08851 14.007731 102.197622 14.007731 C 105.302244 14.007731 108.090342 14.667716 110.566407 15.98544 C 113.046961 17.298675 114.995488 19.117 116.40974 21.440415 C 117.823993 23.766076 118.533364 26.383566 118.533364 29.295131 C 118.533364 32.208941 117.823993 34.826431 116.40974 37.149846 C 114.995488 39.475506 113.046961 41.296076 110.566407 42.616045 C 108.090342 43.92928 105.302244 44.584775 102.197622 44.584775 Z M 102.197622 37.704323 C 103.681465 37.704323 105.023883 37.356372 106.22712 36.658225 C 107.430357 35.953343 108.382172 34.965611 109.078074 33.695028 C 109.782956 32.415466 110.135396 30.949582 110.135396 29.295131 C 110.135396 27.647414 109.782956 26.188264 109.078074 24.917681 C 108.382172 23.638119 107.430357 22.650387 106.22712 21.954485 C 105.023883 21.249604 103.681465 20.897163 102.197622 20.897163 C 100.713779 20.897163 99.369116 21.249604 98.159144 21.954485 C 96.955907 22.650387 96.001848 23.638119 95.296966 24.917681 C 94.601064 26.188264 94.250868 27.647414 94.250868 29.295131 C 94.250868 30.949582 94.601064 32.415466 95.296966 33.695028 C 96.001848 34.965611 96.955907 35.953343 98.159144 36.658225 C 99.369116 37.356372 100.713779 37.704323 102.197622 37.704323 Z M 118.618669 14.602615 L 132.512019 14.602615 C 135.740107 14.602615 138.597796 15.204234 141.085085 16.407471 C 143.581353 17.610709 145.511921 19.319036 146.879032 21.534699 C 148.252877 23.741382 148.9398 26.329689 148.9398 29.295131 C 148.9398 32.269551 148.252877 34.864593 146.879032 37.078011 C 145.511921 39.286939 143.581353 40.993022 141.085085 42.196259 C 138.597796 43.399497 135.740107 44.001115 132.512019 44.001115 L 118.618669 44.001115 Z M 132.184272 37.365351 C 134.700744 37.365351 136.721105 36.65149 138.245355 35.223768 C 139.77634 33.793802 140.541832 31.818337 140.541832 29.295131 C 140.541832 26.780903 139.77634 24.807684 138.245355 23.379962 C 136.721105 21.949995 134.700744 21.236134 132.184272 21.236134 L 126.935822 21.236134 L 126.935822 37.365351 Z M 149.027349 14.602615 L 157.342258 14.602615 L 157.342258 44.001115 L 149.027349 44.001115 Z M 172.546598 26.363362 C 174.980011 26.861718 176.847723 27.862919 178.145244 29.366966 C 179.451744 30.864278 180.104994 32.675868 180.104994 34.801737 C 180.104994 36.539248 179.635821 38.148802 178.699721 39.632645 C 177.76362 41.114244 176.333653 42.310746 174.41431 43.219909 C 172.492722 44.129072 170.11992 44.584775 167.295904 44.584775 C 165.226156 44.584775 163.174367 44.335597 161.145027 43.834997 C 159.113441 43.329906 157.357972 42.616045 155.874129 41.693414 L 158.897936 35.428049 C 160.040563 36.213745 161.333594 36.819854 162.774785 37.241885 C 164.218221 37.659426 165.639208 37.868197 167.039992 37.868197 C 168.469958 37.868197 169.603606 37.60106 170.445423 37.069032 C 171.284995 36.534758 171.707026 35.78049 171.707026 34.801737 C 171.707026 32.895863 170.209714 31.941804 167.21509 31.941804 L 163.728844 31.941804 L 163.728844 26.69111 L 168.979538 21.020629 L 157.38042 21.020629 L 157.38042 14.602615 L 178.636865 14.602615 L 178.636865 19.810657 Z M 172.546598 26.363362 " stroke="#000000" stroke-width="4.7775" stroke-opacity="1" stroke-miterlimit="4"/><g fill="#db4a2b" fill-opacity="1"><g transform="translate(56.223538, 222.994153)"><g><path d="M 19.578125 -39.96875 L 19.578125 -28.71875 L 42.171875 -28.71875 L 42.171875 -17.53125 L 19.578125 -17.53125 L 19.578125 0 L 5.109375 0 L 5.109375 -51.15625 L 45.234375 -51.15625 L 45.234375 -39.96875 Z M 19.578125 -39.96875 "/></g></g></g><g fill="#db4a2b" fill-opacity="1"><g transform="translate(95.689006, 222.994153)"><g><path d="M 30.90625 1.015625 C 25.5 1.015625 20.640625 -0.125 16.328125 -2.40625 C 12.015625 -4.695312 8.628906 -7.863281 6.171875 -11.90625 C 3.710938 -15.957031 2.484375 -20.515625 2.484375 -25.578125 C 2.484375 -30.640625 3.710938 -35.191406 6.171875 -39.234375 C 8.628906 -43.285156 12.015625 -46.453125 16.328125 -48.734375 C 20.640625 -51.023438 25.5 -52.171875 30.90625 -52.171875 C 36.320312 -52.171875 41.179688 -51.023438 45.484375 -48.734375 C 49.796875 -46.453125 53.179688 -43.285156 55.640625 -39.234375 C 58.109375 -35.191406 59.34375 -30.640625 59.34375 -25.578125 C 59.34375 -20.515625 58.109375 -15.957031 55.640625 -11.90625 C 53.179688 -7.863281 49.796875 -4.695312 45.484375 -2.40625 C 41.179688 -0.125 36.320312 1.015625 30.90625 1.015625 Z M 30.90625 -10.96875 C 33.488281 -10.96875 35.828125 -11.570312 37.921875 -12.78125 C 40.015625 -14 41.671875 -15.71875 42.890625 -17.9375 C 44.109375 -20.15625 44.71875 -22.703125 44.71875 -25.578125 C 44.71875 -28.453125 44.109375 -31 42.890625 -33.21875 C 41.671875 -35.4375 40.015625 -37.148438 37.921875 -38.359375 C 35.828125 -39.578125 33.488281 -40.1875 30.90625 -40.1875 C 28.320312 -40.1875 25.984375 -39.578125 23.890625 -38.359375 C 21.796875 -37.148438 20.140625 -35.4375 18.921875 -33.21875 C 17.703125 -31 17.09375 -28.453125 17.09375 -25.578125 C 17.09375 -22.703125 17.703125 -20.15625 18.921875 -17.9375 C 20.140625 -15.71875 21.796875 -14 23.890625 -12.78125 C 25.984375 -11.570312 28.320312 -10.96875 30.90625 -10.96875 Z M 30.90625 -10.96875 "/></g></g></g><g fill="#db4a2b" fill-opacity="1"><g transform="translate(150.06364, 222.994153)"><g><path d="M 30.90625 1.015625 C 25.5 1.015625 20.640625 -0.125 16.328125 -2.40625 C 12.015625 -4.695312 8.628906 -7.863281 6.171875 -11.90625 C 3.710938 -15.957031 2.484375 -20.515625 2.484375 -25.578125 C 2.484375 -30.640625 3.710938 -35.191406 6.171875 -39.234375 C 8.628906 -43.285156 12.015625 -46.453125 16.328125 -48.734375 C 20.640625 -51.023438 25.5 -52.171875 30.90625 -52.171875 C 36.320312 -52.171875 41.179688 -51.023438 45.484375 -48.734375 C 49.796875 -46.453125 53.179688 -43.285156 55.640625 -39.234375 C 58.109375 -35.191406 59.34375 -30.640625 59.34375 -25.578125 C 59.34375 -20.515625 58.109375 -15.957031 55.640625 -11.90625 C 53.179688 -7.863281 49.796875 -4.695312 45.484375 -2.40625 C 41.179688 -0.125 36.320312 1.015625 30.90625 1.015625 Z M 30.90625 -10.96875 C 33.488281 -10.96875 35.828125 -11.570312 37.921875 -12.78125 C 40.015625 -14 41.671875 -15.71875 42.890625 -17.9375 C 44.109375 -20.15625 44.71875 -22.703125 44.71875 -25.578125 C 44.71875 -28.453125 44.109375 -31 42.890625 -33.21875 C 41.671875 -35.4375 40.015625 -37.148438 37.921875 -38.359375 C 35.828125 -39.578125 33.488281 -40.1875 30.90625 -40.1875 C 28.320312 -40.1875 25.984375 -39.578125 23.890625 -38.359375 C 21.796875 -37.148438 20.140625 -35.4375 18.921875 -33.21875 C 17.703125 -31 17.09375 -28.453125 17.09375 -25.578125 C 17.09375 -22.703125 17.703125 -20.15625 18.921875 -17.9375 C 20.140625 -15.71875 21.796875 -14 23.890625 -12.78125 C 25.984375 -11.570312 28.320312 -10.96875 30.90625 -10.96875 Z M 30.90625 -10.96875 "/></g></g></g><g fill="#db4a2b" fill-opacity="1"><g transform="translate(204.438268, 222.994153)"><g><path d="M 5.109375 -51.15625 L 29.296875 -51.15625 C 34.898438 -51.15625 39.867188 -50.109375 44.203125 -48.015625 C 48.546875 -45.921875 51.910156 -42.945312 54.296875 -39.09375 C 56.679688 -35.25 57.875 -30.742188 57.875 -25.578125 C 57.875 -20.410156 56.679688 -15.898438 54.296875 -12.046875 C 51.910156 -8.203125 48.546875 -5.234375 44.203125 -3.140625 C 39.867188 -1.046875 34.898438 0 29.296875 0 L 5.109375 0 Z M 28.71875 -11.546875 C 33.101562 -11.546875 36.625 -12.785156 39.28125 -15.265625 C 41.9375 -17.753906 43.265625 -21.191406 43.265625 -25.578125 C 43.265625 -29.960938 41.9375 -33.394531 39.28125 -35.875 C 36.625 -38.363281 33.101562 -39.609375 28.71875 -39.609375 L 19.578125 -39.609375 L 19.578125 -11.546875 Z M 28.71875 -11.546875 "/></g></g></g><g fill="#db4a2b" fill-opacity="1"><g transform="translate(257.351235, 222.994153)"><g><path d="M 5.109375 -51.15625 L 19.578125 -51.15625 L 19.578125 0 L 5.109375 0 Z M 5.109375 -51.15625 "/></g></g></g><g fill="#db4a2b" fill-opacity="1"><g transform="translate(274.672207, 222.994153)"><g><path d="M 28.71875 -30.6875 C 32.957031 -29.8125 36.207031 -28.070312 38.46875 -25.46875 C 40.738281 -22.863281 41.875 -19.707031 41.875 -16 C 41.875 -12.976562 41.054688 -10.175781 39.421875 -7.59375 C 37.796875 -5.019531 35.3125 -2.941406 31.96875 -1.359375 C 28.632812 0.222656 24.503906 1.015625 19.578125 1.015625 C 15.972656 1.015625 12.40625 0.578125 8.875 -0.296875 C 5.34375 -1.171875 2.285156 -2.410156 -0.296875 -4.015625 L 4.96875 -14.90625 C 6.96875 -13.539062 9.222656 -12.492188 11.734375 -11.765625 C 14.242188 -11.035156 16.710938 -10.671875 19.140625 -10.671875 C 21.628906 -10.671875 23.601562 -11.132812 25.0625 -12.0625 C 26.53125 -12.988281 27.265625 -14.300781 27.265625 -16 C 27.265625 -19.3125 24.65625 -20.96875 19.4375 -20.96875 L 13.375 -20.96875 L 13.375 -30.109375 L 22.515625 -39.96875 L 2.34375 -39.96875 L 2.34375 -51.15625 L 39.3125 -51.15625 L 39.3125 -42.09375 Z M 28.71875 -30.6875 "/></g></g></g><g clip-path="url(#2cdb7e953f)"><g clip-path="url(#d3ea80685e)"><g clip-path="url(#379eebd72c)"><g clip-path="url(#848fad5d11)"><path fill="#6faf3b" d="M 256.894531 173.945312 C 258.027344 176.316406 259.910156 178.21875 262.117188 179.628906 C 262.144531 179.765625 262.183594 179.894531 262.226562 180.03125 C 262.25 180.121094 262.269531 180.210938 262.304688 180.292969 C 262.34375 180.613281 262.332031 180.929688 262.308594 181.261719 C 262.292969 181.511719 262.296875 181.902344 262.59375 182.003906 C 262.859375 182.097656 263.054688 181.871094 263.117188 181.628906 C 263.15625 181.488281 263.183594 181.34375 263.230469 181.207031 C 263.242188 181.179688 263.253906 181.160156 263.269531 181.136719 C 263.550781 180.964844 263.8125 180.75 264.105469 180.589844 C 264.289062 180.484375 264.480469 180.394531 264.671875 180.308594 C 266.609375 180.703125 268.730469 180.476562 270.660156 180.152344 C 272.101562 179.914062 273.511719 179.484375 274.816406 178.804688 C 277.386719 177.464844 279.441406 175.316406 280.839844 172.796875 C 283.363281 168.257812 284.121094 162.65625 283.304688 157.570312 C 282.769531 154.230469 281.496094 151.113281 280.261719 147.988281 C 279.355469 145.6875 278.65625 143.476562 278.484375 141.046875 C 278.34375 139.03125 278.453125 136.988281 278.398438 134.972656 C 277.757812 136.289062 274.214844 139.625 269.71875 142.984375 C 266.75 145.203125 263.828125 147.585938 261.429688 150.421875 C 259.574219 152.617188 258.042969 155.050781 257.019531 157.734375 C 255.957031 160.523438 255.554688 163.488281 255.53125 166.457031 C 255.507812 169.003906 255.785156 171.617188 256.894531 173.945312 " fill-opacity="1" fill-rule="nonzero"/></g></g></g></g><g clip-path="url(#736d2ea308)"><g clip-path="url(#424dfd8944)"><g clip-path="url(#77c76f9517)"><g clip-path="url(#3380c8be79)"><path fill="#bde594" d="M 272.574219 179.710938 L 272.574219 179.710938 M 272.574219 179.710938 C 271.953125 179.898438 271.316406 180.042969 270.675781 180.152344 C 271.316406 180.042969 271.953125 179.898438 272.574219 179.710938 M 262.804688 182.011719 L 262.804688 182.011719 M 262.804688 182.011719 C 262.742188 182.03125 262.671875 182.03125 262.59375 182.003906 C 262.457031 181.957031 262.382812 181.847656 262.34375 181.71875 C 262.382812 181.847656 262.457031 181.957031 262.59375 182.003906 C 262.671875 182.03125 262.742188 182.03125 262.804688 182.011719 M 263.113281 181.644531 L 263.113281 181.644531 M 263.117188 181.640625 C 263.117188 181.636719 263.117188 181.632812 263.117188 181.628906 C 263.15625 181.488281 263.183594 181.34375 263.230469 181.207031 C 263.242188 181.179688 263.253906 181.160156 263.269531 181.136719 C 263.550781 180.964844 263.8125 180.75 264.105469 180.589844 C 264.289062 180.488281 264.472656 180.398438 264.664062 180.316406 C 264.472656 180.398438 264.289062 180.488281 264.105469 180.589844 C 263.8125 180.75 263.550781 180.964844 263.269531 181.136719 C 263.253906 181.160156 263.242188 181.179688 263.230469 181.207031 C 263.183594 181.34375 263.15625 181.488281 263.117188 181.628906 C 263.117188 181.632812 263.117188 181.636719 263.117188 181.640625 M 255.53125 166.445312 C 255.53125 166.441406 255.53125 166.441406 255.53125 166.4375 C 255.53125 166.441406 255.53125 166.441406 255.53125 166.445312 M 255.53125 166.429688 C 255.53125 166.425781 255.53125 166.425781 255.53125 166.421875 C 255.53125 166.425781 255.53125 166.425781 255.53125 166.429688 M 255.53125 166.417969 C 255.53125 166.3125 255.535156 166.207031 255.535156 166.097656 C 255.535156 166.207031 255.53125 166.3125 255.53125 166.417969 M 255.535156 166.097656 C 255.535156 166.09375 255.535156 166.089844 255.535156 166.085938 C 255.535156 166.089844 255.535156 166.09375 255.535156 166.097656 M 255.535156 166.082031 C 255.535156 166.078125 255.535156 166.074219 255.535156 166.074219 C 255.535156 166.074219 255.535156 166.078125 255.535156 166.082031 M 255.535156 166.0625 C 255.535156 166.0625 255.535156 166.0625 255.535156 166.058594 C 255.535156 166.0625 255.535156 166.0625 255.535156 166.0625 M 255.535156 166.050781 C 255.535156 166.046875 255.535156 166.046875 255.535156 166.046875 C 255.535156 166.046875 255.535156 166.050781 255.535156 166.050781 M 278.472656 140.902344 C 278.472656 140.902344 278.472656 140.898438 278.472656 140.894531 C 278.472656 140.898438 278.472656 140.902344 278.472656 140.902344 M 278.472656 140.894531 C 278.4375 140.3125 278.417969 139.730469 278.410156 139.148438 C 278.410156 139.128906 278.410156 139.105469 278.410156 139.085938 C 278.417969 139.691406 278.433594 140.292969 278.472656 140.894531 " fill-opacity="1" fill-rule="nonzero"/></g></g></g></g><g clip-path="url(#55a9e3440e)"><g clip-path="url(#a42a96d996)"><g clip-path="url(#4eb113122f)"><g clip-path="url(#00a1aaa77b)"><path fill="#54a83d" d="M 272.574219 179.710938 C 271.953125 179.898438 271.316406 180.042969 270.675781 180.152344 C 270.667969 180.152344 270.664062 180.152344 270.660156 180.152344 C 269.691406 180.316406 268.675781 180.453125 267.65625 180.5 C 268.664062 180.453125 269.671875 180.316406 270.628906 180.15625 C 271.277344 180.046875 271.917969 179.902344 272.542969 179.710938 C 273.316406 179.480469 274.066406 179.179688 274.785156 178.808594 C 277.355469 177.464844 279.410156 175.316406 280.808594 172.800781 C 283.332031 168.257812 284.089844 162.65625 283.277344 157.574219 C 282.738281 154.234375 281.46875 151.117188 280.230469 147.988281 C 279.328125 145.703125 278.632812 143.503906 278.457031 141.089844 C 278.429688 140.445312 278.414062 139.796875 278.410156 139.148438 C 278.417969 139.730469 278.4375 140.3125 278.472656 140.894531 C 278.472656 140.898438 278.472656 140.902344 278.472656 140.902344 C 278.476562 140.953125 278.480469 141 278.484375 141.046875 C 278.585938 142.496094 278.875 143.867188 279.285156 145.226562 C 279.5625 146.148438 279.894531 147.058594 280.261719 147.988281 C 281.050781 149.980469 281.851562 151.972656 282.46875 154.019531 C 282.820312 155.179688 283.113281 156.359375 283.304688 157.570312 C 284.121094 162.65625 283.363281 168.257812 280.839844 172.796875 C 279.441406 175.316406 277.386719 177.464844 274.816406 178.804688 C 274.097656 179.179688 273.347656 179.476562 272.574219 179.710938 M 262.804688 182.011719 C 262.742188 182.03125 262.671875 182.03125 262.59375 182.003906 C 262.457031 181.957031 262.382812 181.847656 262.34375 181.71875 C 262.296875 181.570312 262.300781 181.398438 262.308594 181.261719 C 262.332031 180.929688 262.34375 180.613281 262.304688 180.292969 C 262.292969 180.261719 262.28125 180.226562 262.269531 180.191406 C 262.253906 180.136719 262.238281 180.085938 262.226562 180.03125 C 262.183594 179.894531 262.144531 179.765625 262.117188 179.628906 C 259.910156 178.21875 258.027344 176.316406 256.894531 173.945312 C 256.625 173.378906 256.40625 172.796875 256.226562 172.203125 C 255.667969 170.351562 255.511719 168.386719 255.53125 166.457031 C 255.53125 166.453125 255.53125 166.449219 255.53125 166.445312 C 255.53125 166.441406 255.53125 166.441406 255.53125 166.4375 C 255.53125 166.4375 255.53125 166.433594 255.53125 166.429688 C 255.53125 166.425781 255.53125 166.425781 255.53125 166.421875 C 255.53125 166.421875 255.53125 166.421875 255.53125 166.417969 C 255.53125 166.3125 255.535156 166.207031 255.535156 166.097656 C 255.535156 166.09375 255.535156 166.089844 255.535156 166.085938 C 255.535156 166.082031 255.535156 166.082031 255.535156 166.082031 C 255.535156 166.078125 255.535156 166.074219 255.535156 166.074219 C 255.535156 166.070312 255.535156 166.066406 255.535156 166.0625 C 255.535156 166.0625 255.535156 166.0625 255.535156 166.058594 C 255.535156 166.058594 255.535156 166.054688 255.535156 166.050781 C 255.535156 166.050781 255.535156 166.046875 255.535156 166.046875 C 255.582031 163.789062 255.855469 161.535156 256.476562 159.363281 C 256.515625 160.511719 256.5625 161.789062 256.875 162.941406 C 256.617188 164.316406 256.46875 165.789062 256.429688 167.378906 C 256.359375 170.261719 256.71875 172.453125 257.554688 174.273438 C 258.46875 176.265625 260.070312 178.058594 262.1875 179.457031 L 262.691406 179.789062 L 262.785156 180.347656 C 262.796875 180.339844 262.804688 180.335938 262.816406 180.332031 C 262.78125 180.882812 262.753906 181.445312 262.734375 182.019531 C 262.75 182.019531 262.761719 182.015625 262.773438 182.011719 C 262.929688 181.964844 263.042969 181.800781 263.089844 181.632812 C 263.125 181.492188 263.152344 181.347656 263.203125 181.207031 C 263.210938 181.179688 263.226562 181.160156 263.238281 181.136719 C 263.523438 180.964844 263.785156 180.75 264.074219 180.589844 C 264.261719 180.488281 264.449219 180.398438 264.644531 180.3125 C 264.648438 180.3125 264.65625 180.3125 264.664062 180.316406 C 264.472656 180.398438 264.289062 180.488281 264.105469 180.589844 C 263.8125 180.75 263.550781 180.964844 263.269531 181.136719 C 263.253906 181.160156 263.242188 181.179688 263.230469 181.207031 C 263.183594 181.34375 263.15625 181.488281 263.117188 181.628906 C 263.117188 181.632812 263.117188 181.636719 263.117188 181.640625 C 263.117188 181.640625 263.113281 181.644531 263.113281 181.644531 C 263.066406 181.808594 262.957031 181.964844 262.804688 182.011719 " fill-opacity="1" fill-rule="nonzero"/></g></g></g></g><g clip-path="url(#91cf9c6bfb)"><g clip-path="url(#16e73f7cd7)"><g clip-path="url(#7f4d2a8c18)"><g clip-path="url(#8fd8701282)"><path fill="#318b43" d="M 262.734375 182.019531 C 262.753906 181.445312 262.78125 180.882812 262.816406 180.332031 C 262.78125 180.882812 262.753906 181.445312 262.734375 182.019531 " fill-opacity="1" fill-rule="nonzero"/></g></g></g></g><g clip-path="url(#c673dee0e8)"><g clip-path="url(#d036c7b62e)"><g clip-path="url(#c13fc4b2d1)"><g clip-path="url(#935c5d6325)"><path fill="#3d8d43" d="M 280.550781 154.871094 C 280.070312 153.328125 279.492188 151.789062 278.890625 150.207031 L 278.722656 149.757812 C 278.46875 149.089844 278.214844 148.378906 277.980469 147.628906 C 278.035156 147.59375 278.089844 147.558594 278.144531 147.523438 C 278.28125 147.429688 278.417969 147.316406 278.554688 147.203125 C 278.351562 147.308594 278.144531 147.398438 277.929688 147.46875 C 277.453125 145.925781 277.066406 144.214844 276.964844 142.375 C 276.925781 141.65625 276.917969 140.9375 276.921875 140.222656 C 277.671875 137.578125 278.355469 135.0625 278.398438 134.972656 C 278.453125 136.988281 278.3125 139.03125 278.453125 141.046875 C 278.453125 141.0625 278.457031 141.074219 278.457031 141.089844 C 278.460938 141.234375 278.46875 141.378906 278.476562 141.519531 C 278.683594 145.496094 279.5625 149.414062 280.277344 153.320312 C 280.371094 153.835938 280.464844 154.355469 280.550781 154.871094 " fill-opacity="1" fill-rule="nonzero"/></g></g></g></g><g clip-path="url(#9e30b96547)"><g clip-path="url(#73aefcb172)"><g clip-path="url(#05e4e535f1)"><g clip-path="url(#dcf8ae26e1)"><path fill="#318b43" d="M 280.402344 170.414062 C 281.683594 166.941406 282.101562 162.964844 281.542969 159.097656 C 281.492188 158.761719 281.4375 158.425781 281.375 158.09375 C 281.558594 157.914062 281.734375 157.710938 281.894531 157.484375 C 282.238281 157 282.507812 156.472656 282.726562 155.917969 C 282.320312 156.484375 281.796875 156.949219 281.214844 157.324219 C 281.03125 156.5 280.804688 155.683594 280.550781 154.871094 C 280.464844 154.355469 280.371094 153.835938 280.277344 153.320312 C 279.5625 149.414062 278.683594 145.496094 278.476562 141.519531 C 278.46875 141.378906 278.460938 141.234375 278.457031 141.089844 C 278.632812 143.503906 279.328125 145.703125 280.230469 147.988281 C 281.46875 151.117188 282.738281 154.234375 283.277344 157.574219 C 283.273438 157.558594 283.269531 157.546875 283.269531 157.535156 C 283.617188 163.804688 282.0625 167.84375 280.402344 170.414062 " fill-opacity="1" fill-rule="nonzero"/></g></g></g></g><g clip-path="url(#a47f36c955)"><g clip-path="url(#23cc43c2bc)"><g clip-path="url(#052e1e3ad1)"><g clip-path="url(#11a08621c3)"><path fill="#489d66" d="M 267.65625 180.5 C 266.644531 180.550781 265.628906 180.507812 264.664062 180.316406 C 264.667969 180.3125 264.667969 180.3125 264.671875 180.308594 C 265.636719 180.503906 266.648438 180.546875 267.65625 180.5 " fill-opacity="1" fill-rule="nonzero"/></g></g></g></g><g clip-path="url(#fd5d66143d)"><g clip-path="url(#5a5c917c05)"><g clip-path="url(#cd0d7ae927)"><g clip-path="url(#f21844c6ad)"><path fill="#248445" d="M 272.542969 179.710938 C 271.917969 179.902344 271.277344 180.046875 270.628906 180.15625 C 269.671875 180.316406 268.664062 180.453125 267.65625 180.5 C 266.648438 180.546875 265.636719 180.503906 264.671875 180.308594 C 264.667969 180.3125 264.667969 180.3125 264.664062 180.316406 C 264.65625 180.3125 264.648438 180.3125 264.644531 180.3125 C 264.449219 180.398438 264.261719 180.488281 264.074219 180.589844 C 263.785156 180.75 263.523438 180.964844 263.238281 181.136719 C 263.226562 181.160156 263.210938 181.179688 263.203125 181.207031 C 263.152344 181.347656 263.125 181.492188 263.089844 181.632812 C 263.042969 181.800781 262.929688 181.964844 262.773438 182.011719 C 262.761719 182.015625 262.75 182.019531 262.734375 182.019531 C 262.753906 181.445312 262.78125 180.882812 262.816406 180.332031 C 263.03125 180.21875 263.238281 180.128906 263.398438 180.058594 L 263.816406 179.882812 L 264.257812 179.976562 C 265.007812 180.140625 265.839844 180.210938 266.800781 180.1875 C 267.640625 180.164062 268.574219 180.074219 269.730469 179.898438 C 270.40625 179.796875 271.050781 179.652344 271.664062 179.46875 C 272.308594 179.273438 272.917969 179.03125 273.484375 178.75 C 275.730469 177.621094 277.640625 175.769531 279.011719 173.390625 C 279.550781 172.453125 280.015625 171.457031 280.402344 170.414062 C 282.0625 167.84375 283.617188 163.804688 283.269531 157.535156 C 283.269531 157.546875 283.273438 157.558594 283.277344 157.574219 C 284.089844 162.65625 283.332031 168.257812 280.808594 172.800781 C 279.410156 175.316406 277.355469 177.464844 274.785156 178.808594 C 274.066406 179.179688 273.316406 179.480469 272.542969 179.710938 " fill-opacity="1" fill-rule="nonzero"/></g></g></g></g><g clip-path="url(#d9e4489fc7)"><g clip-path="url(#0ff7ac0d5c)"><g clip-path="url(#9603ddb131)"><g clip-path="url(#cd7af1410b)"><path fill="#7fb740" d="M 261.421875 165.824219 C 260.269531 166.171875 259.097656 166.148438 258.132812 165.222656 C 258.066406 165.15625 258 165.089844 257.9375 165.023438 C 257.605469 164.238281 257.347656 163.429688 257.152344 162.585938 C 257.195312 163.167969 257.28125 163.726562 257.398438 164.269531 C 257.171875 163.859375 257 163.410156 256.875 162.941406 C 257.015625 162.1875 257.1875 161.464844 257.398438 160.765625 C 257.601562 162.121094 258.078125 163.675781 259.195312 164.0625 C 259.636719 164.21875 260.199219 164.175781 260.820312 163.988281 C 261.867188 163.675781 263.089844 162.941406 264.234375 162.007812 C 264.300781 162.105469 264.371094 162.199219 264.441406 162.292969 C 264.777344 162.730469 265.132812 163.148438 265.496094 163.558594 C 265.082031 163.867188 264.65625 164.160156 264.222656 164.433594 C 263.40625 164.941406 262.421875 165.523438 261.421875 165.824219 " fill-opacity="1" fill-rule="nonzero"/></g></g></g></g><g clip-path="url(#dafb9e6ee1)"><g clip-path="url(#1e97beafb0)"><g clip-path="url(#25bb4d0e3e)"><g clip-path="url(#73be882fbf)"><path fill="#65b03e" d="M 262.785156 180.347656 L 262.691406 179.789062 L 262.1875 179.457031 C 260.070312 178.058594 258.46875 176.265625 257.554688 174.273438 C 256.71875 172.453125 256.359375 170.261719 256.429688 167.378906 C 256.46875 165.789062 256.617188 164.316406 256.875 162.941406 C 257 163.410156 257.171875 163.859375 257.398438 164.269531 C 257.859375 166.339844 258.855469 168.167969 260.328125 169.945312 C 261.097656 170.875 261.691406 171.707031 262.125 172.71875 C 262.65625 173.433594 263.082031 174.183594 263.429688 174.96875 C 263.148438 176.601562 262.9375 178.382812 262.816406 180.332031 C 262.804688 180.335938 262.796875 180.339844 262.785156 180.347656 M 263.738281 173.335938 C 262.621094 171.488281 261.089844 169.886719 259.78125 168.171875 C 259.003906 167.152344 258.398438 166.109375 257.9375 165.023438 C 258 165.089844 258.066406 165.15625 258.132812 165.222656 C 259.097656 166.148438 260.269531 166.171875 261.421875 165.824219 C 262.421875 165.523438 263.40625 164.941406 264.222656 164.433594 C 264.65625 164.160156 265.082031 163.867188 265.496094 163.558594 C 265.847656 163.957031 266.210938 164.351562 266.5625 164.75 C 265.515625 167.046875 264.476562 169.828125 263.738281 173.335938 " fill-opacity="1" fill-rule="nonzero"/></g></g></g></g><g clip-path="url(#44ca39af8a)"><g clip-path="url(#baba62daaf)"><g clip-path="url(#bb54e2c1c0)"><g clip-path="url(#6248017895)"><path fill="#7fb740" d="M 266.363281 162.867188 C 265.964844 162.425781 265.5625 161.988281 265.175781 161.53125 C 265.121094 161.464844 265.066406 161.398438 265.015625 161.328125 C 266.066406 160.355469 266.988281 159.238281 267.5625 158.175781 C 267.925781 157.496094 268.589844 156.113281 269.402344 154.367188 C 269.761719 155.070312 270.238281 155.71875 270.746094 156.335938 C 270.894531 156.03125 271.035156 155.726562 271.183594 155.417969 C 270.785156 154.949219 270.429688 154.460938 270.136719 153.984375 C 270.027344 153.800781 269.925781 153.617188 269.835938 153.433594 C 271.027344 150.863281 272.460938 147.710938 273.734375 144.875 C 273.761719 145.019531 273.792969 145.167969 273.832031 145.320312 C 274.015625 146.042969 274.316406 146.726562 274.667969 147.394531 C 274.789062 147.066406 274.910156 146.738281 275.027344 146.410156 C 274.871094 146.03125 274.582031 145.6875 274.371094 145.355469 C 274.171875 145.050781 274.046875 144.710938 273.96875 144.359375 C 274.453125 143.285156 274.910156 142.265625 275.316406 141.351562 C 275.871094 140.878906 276.417969 140.402344 276.925781 139.929688 C 276.921875 140.027344 276.921875 140.125 276.921875 140.222656 C 276.296875 142.433594 275.628906 144.734375 275.253906 145.804688 C 274.984375 146.566406 274.703125 147.320312 274.40625 148.070312 C 274.40625 148.070312 274.402344 148.070312 274.402344 148.070312 C 274.277344 148.390625 274.148438 148.703125 274.019531 149.019531 C 274.023438 149.019531 274.027344 149.015625 274.03125 149.011719 C 272.679688 152.347656 271.121094 155.597656 269.535156 158.832031 C 269.480469 158.9375 269.429688 159.046875 269.378906 159.152344 C 269.359375 159.191406 269.339844 159.230469 269.320312 159.265625 C 269.1875 159.539062 269.046875 159.816406 268.898438 160.101562 C 268.867188 160.167969 268.832031 160.230469 268.796875 160.296875 C 268.730469 160.429688 268.660156 160.5625 268.589844 160.699219 C 267.890625 161.476562 267.152344 162.203125 266.363281 162.867188 " fill-opacity="1" fill-rule="nonzero"/></g></g></g></g><g clip-path="url(#cacf20534c)"><g clip-path="url(#245863c71a)"><g clip-path="url(#ba687e8e6b)"><g clip-path="url(#27e144b9de)"><path fill="#65b03e" d="M 267.078125 163.65625 C 266.84375 163.390625 266.605469 163.128906 266.363281 162.867188 C 267.152344 162.203125 267.890625 161.476562 268.589844 160.699219 C 268.121094 161.589844 267.605469 162.566406 267.078125 163.65625 " fill-opacity="1" fill-rule="nonzero"/></g></g></g></g><g clip-path="url(#c031af85ca)"><g clip-path="url(#10b57b0586)"><g clip-path="url(#19563070f9)"><g clip-path="url(#9660403c9f)"><path fill="#409442" d="M 262.816406 180.332031 C 262.9375 178.382812 263.148438 176.601562 263.429688 174.96875 C 263.148438 176.601562 262.9375 178.382812 262.816406 180.332031 " fill-opacity="1" fill-rule="nonzero"/></g></g></g></g><g clip-path="url(#94c91ebc59)"><g clip-path="url(#188beeab13)"><g clip-path="url(#3491b03cfc)"><g clip-path="url(#42f7ef02f6)"><path fill="#4d9743" d="M 276.277344 171.582031 C 274.988281 171.96875 273.503906 171.769531 272.347656 171.105469 C 271.945312 170.871094 271.589844 170.578125 271.277344 170.242188 C 271.265625 170.125 271.234375 170.011719 271.175781 169.910156 C 271.054688 169.707031 270.882812 169.570312 270.683594 169.488281 C 270.527344 169.25 270.382812 169 270.253906 168.746094 C 272.921875 168.472656 275.890625 168.753906 278.382812 168.003906 C 278.921875 167.839844 279.441406 167.628906 279.929688 167.351562 C 279.476562 168.535156 278.859375 169.648438 277.992188 170.550781 C 277.511719 171.050781 276.917969 171.386719 276.277344 171.582031 M 279.976562 167.222656 C 277.84375 167.863281 275.375 167.910156 273.386719 167.859375 C 272.207031 167.832031 271.050781 167.855469 269.902344 167.972656 C 269.84375 167.820312 269.785156 167.667969 269.730469 167.515625 C 269.824219 167.515625 269.917969 167.511719 270.007812 167.507812 C 270.628906 167.472656 271.257812 167.453125 271.851562 167.277344 C 271.921875 167.253906 271.992188 167.230469 272.0625 167.203125 C 272.109375 167.1875 272.148438 167.144531 272.144531 167.09375 C 271.769531 162.625 273.3125 161.144531 273.265625 160.3125 C 273.230469 159.75 271.742188 159.707031 270.601562 160.046875 C 270.074219 160.207031 269.621094 160.453125 269.425781 160.765625 C 269.230469 161.078125 268.960938 161.574219 268.683594 162.105469 C 268.652344 161.621094 268.636719 161.132812 268.636719 160.644531 C 268.621094 160.664062 268.605469 160.679688 268.589844 160.699219 C 268.660156 160.5625 268.730469 160.429688 268.796875 160.296875 C 268.972656 160.214844 269.148438 160.132812 269.332031 160.058594 C 269.554688 159.964844 269.78125 159.886719 270.007812 159.816406 C 271.859375 159.257812 273.789062 159.46875 275.71875 159.542969 C 276.933594 159.59375 278.230469 159.570312 279.390625 159.21875 C 279.976562 159.042969 280.527344 158.78125 281.015625 158.40625 C 281.175781 160.324219 281.15625 162.25 280.785156 164.203125 C 280.59375 165.199219 280.34375 166.234375 279.976562 167.222656 M 279.316406 158.1875 C 279.285156 158.195312 279.257812 158.203125 279.226562 158.214844 C 277.507812 158.710938 275.675781 158.730469 273.902344 158.707031 C 272.855469 158.691406 271.816406 158.582031 270.769531 158.652344 C 270.351562 158.679688 269.941406 158.75 269.535156 158.832031 C 271.121094 155.597656 272.679688 152.347656 274.03125 149.011719 C 274.261719 148.867188 274.503906 148.738281 274.757812 148.640625 C 274.898438 148.585938 275.035156 148.539062 275.171875 148.496094 C 275.484375 148.402344 275.792969 148.335938 276.101562 148.269531 C 276.40625 148.207031 276.710938 148.140625 277.007812 148.050781 C 277.335938 147.953125 277.660156 147.824219 277.980469 147.628906 C 278.214844 148.378906 278.46875 149.089844 278.722656 149.757812 L 278.890625 150.207031 C 279.492188 151.789062 280.070312 153.328125 280.550781 154.871094 C 280.699219 155.75 280.828125 156.625 280.925781 157.5 C 280.417969 157.792969 279.871094 158.019531 279.316406 158.1875 M 274.574219 150.308594 C 273.71875 152.460938 271.578125 157.472656 271.457031 157.722656 C 271.460938 157.757812 271.46875 157.792969 271.472656 157.828125 C 272.425781 157.617188 273.398438 157.542969 274.394531 157.347656 C 274.648438 157.207031 274.890625 157.023438 275.117188 156.78125 C 276.160156 155.65625 275.453125 153.703125 275.082031 152.460938 C 274.890625 151.832031 274.671875 151.070312 274.574219 150.308594 M 268.898438 160.101562 C 269.046875 159.816406 269.1875 159.539062 269.320312 159.265625 C 269.339844 159.230469 269.359375 159.191406 269.378906 159.152344 C 269.359375 159.191406 269.339844 159.230469 269.320312 159.265625 C 269.1875 159.539062 269.046875 159.816406 268.898438 160.101562 M 277.804688 147.507812 C 277.375 147.636719 276.925781 147.707031 276.460938 147.734375 C 275.742188 147.773438 275.128906 147.851562 274.558594 148.023438 C 274.507812 148.039062 274.457031 148.054688 274.40625 148.070312 C 274.703125 147.320312 274.984375 146.566406 275.253906 145.804688 C 275.628906 144.734375 276.296875 142.433594 276.921875 140.222656 C 276.917969 140.9375 276.925781 141.65625 276.964844 142.375 C 277.066406 144.214844 277.453125 145.925781 277.929688 147.46875 C 277.886719 147.484375 277.847656 147.496094 277.804688 147.507812 " fill-opacity="1" fill-rule="nonzero"/></g></g></g></g><g clip-path="url(#c3868508be)"><g clip-path="url(#20567c2e3d)"><g clip-path="url(#8a724f657d)"><g clip-path="url(#277bd932f5)"><path fill="#409442" d="M 272.960938 176.679688 C 272.953125 176.675781 272.9375 176.671875 272.921875 176.671875 C 272.242188 176.675781 271.5 176.558594 271.011719 176.039062 C 270.386719 175.367188 270.179688 174.347656 270.355469 173.460938 C 270.519531 172.648438 270.902344 171.945312 271.132812 171.160156 C 271.207031 170.902344 271.308594 170.550781 271.277344 170.242188 C 271.589844 170.578125 271.945312 170.871094 272.347656 171.105469 C 273.503906 171.769531 274.988281 171.96875 276.277344 171.582031 C 276.917969 171.386719 277.511719 171.050781 277.992188 170.550781 C 278.859375 169.648438 279.476562 168.535156 279.929688 167.351562 C 280.058594 167.277344 280.1875 167.199219 280.3125 167.117188 C 280.210938 167.152344 280.105469 167.183594 279.996094 167.214844 C 279.992188 167.21875 279.984375 167.222656 279.976562 167.222656 C 280.34375 166.234375 280.59375 165.199219 280.785156 164.203125 C 281.15625 162.25 281.175781 160.324219 281.015625 158.40625 C 281.140625 158.308594 281.257812 158.207031 281.375 158.09375 C 281.4375 158.425781 281.492188 158.761719 281.542969 159.097656 C 282.101562 162.964844 281.683594 166.941406 280.402344 170.414062 C 279.308594 172.105469 278.167969 173.160156 277.496094 173.792969 C 276.222656 174.992188 274.667969 176.125 272.960938 176.679688 M 265.078125 173.40625 C 264.8125 172.613281 264.746094 171.738281 264.769531 170.851562 C 265.644531 170.078125 266.746094 169.542969 267.878906 169.199219 C 268.292969 169.074219 268.714844 168.976562 269.132812 168.898438 C 269.496094 168.832031 269.871094 168.785156 270.253906 168.746094 C 270.382812 169 270.527344 169.25 270.683594 169.488281 C 270.175781 169.269531 269.484375 169.382812 268.972656 169.464844 C 268.640625 169.519531 268.292969 169.597656 267.953125 169.699219 C 267.148438 169.941406 266.375 170.339844 265.898438 171.011719 C 265.386719 171.730469 265.222656 172.5625 265.078125 173.40625 M 263.738281 173.335938 C 264.476562 169.828125 265.515625 167.046875 266.5625 164.75 C 266.734375 164.375 266.90625 164.007812 267.078125 163.65625 C 267.605469 162.566406 268.121094 161.589844 268.589844 160.699219 C 268.605469 160.679688 268.621094 160.664062 268.636719 160.644531 C 268.636719 161.132812 268.652344 161.621094 268.683594 162.105469 C 268.285156 162.875 267.878906 163.71875 267.671875 164.207031 C 267.382812 164.886719 267.074219 165.570312 266.84375 166.273438 C 266.628906 166.929688 266.375 168.125 267.375 167.824219 C 267.417969 167.808594 267.464844 167.792969 267.511719 167.777344 C 267.574219 167.753906 267.636719 167.730469 267.703125 167.710938 C 268.328125 167.523438 269.066406 167.539062 269.730469 167.515625 C 269.785156 167.667969 269.84375 167.820312 269.902344 167.972656 C 268.789062 168.085938 267.683594 168.285156 266.574219 168.609375 C 266.554688 168.617188 266.535156 168.621094 266.515625 168.628906 C 265.90625 168.8125 265.367188 169.066406 264.878906 169.382812 C 264.902344 169.199219 264.925781 169.019531 264.953125 168.835938 C 264.886719 169.042969 264.816406 169.253906 264.75 169.464844 C 264.75 169.464844 264.75 169.464844 264.75 169.46875 C 264.550781 170.101562 264.359375 170.761719 264.179688 171.453125 C 264.179688 171.453125 264.179688 171.453125 264.183594 171.453125 C 264.023438 172.054688 263.878906 172.683594 263.738281 173.335938 M 280.925781 157.5 C 280.828125 156.625 280.699219 155.75 280.550781 154.871094 C 280.804688 155.683594 281.03125 156.5 281.214844 157.324219 C 281.121094 157.386719 281.023438 157.445312 280.925781 157.5 " fill-opacity="1" fill-rule="nonzero"/></g></g></g></g><g clip-path="url(#f8fd37ed10)"><g clip-path="url(#5b2dd08ec1)"><g clip-path="url(#bc9578605c)"><g clip-path="url(#eb55f07050)"><path fill="#2e8c45" d="M 271.664062 179.46875 C 271.050781 179.652344 270.40625 179.796875 269.730469 179.898438 C 268.574219 180.074219 267.640625 180.164062 266.800781 180.1875 C 265.839844 180.210938 265.007812 180.140625 264.257812 179.976562 L 263.816406 179.882812 L 263.398438 180.058594 C 263.238281 180.128906 263.03125 180.21875 262.816406 180.332031 C 262.9375 178.382812 263.148438 176.601562 263.429688 174.96875 C 263.527344 174.410156 263.628906 173.867188 263.742188 173.339844 C 263.742188 173.339844 263.742188 173.335938 263.738281 173.335938 C 263.878906 172.683594 264.023438 172.054688 264.183594 171.453125 C 264.363281 171.238281 264.558594 171.039062 264.769531 170.851562 C 264.746094 171.738281 264.8125 172.613281 265.078125 173.40625 C 265 173.851562 264.929688 174.300781 264.8125 174.734375 C 264.527344 175.785156 264.082031 177.199219 265.066406 178.023438 C 265.929688 178.742188 267.433594 178.554688 268.449219 178.414062 C 269.070312 178.324219 269.71875 178.195312 270.347656 178.003906 C 271.183594 177.75 271.992188 177.398438 272.675781 176.910156 C 272.6875 176.902344 272.695312 176.890625 272.699219 176.878906 C 272.777344 176.871094 272.851562 176.867188 272.929688 176.851562 C 272.9375 176.851562 272.941406 176.851562 272.945312 176.851562 C 273.03125 176.824219 273.035156 176.707031 272.960938 176.679688 C 274.667969 176.125 276.222656 174.992188 277.496094 173.792969 C 278.167969 173.160156 279.308594 172.105469 280.402344 170.414062 C 280.015625 171.457031 279.550781 172.453125 279.011719 173.390625 C 277.640625 175.769531 275.730469 177.621094 273.484375 178.75 C 272.917969 179.03125 272.308594 179.273438 271.664062 179.46875 M 264.75 169.464844 C 264.816406 169.253906 264.886719 169.042969 264.953125 168.835938 C 264.925781 169.019531 264.902344 169.199219 264.878906 169.382812 C 264.835938 169.410156 264.792969 169.4375 264.75 169.464844 " fill-opacity="1" fill-rule="nonzero"/></g></g></g></g><g clip-path="url(#1383cfbc9d)"><g clip-path="url(#97c125dd9c)"><g clip-path="url(#a4345c19d0)"><g clip-path="url(#a38bea2a9b)"><path fill="#7fb740" d="M 257.398438 160.765625 C 257.226562 159.605469 257.253906 158.59375 257.253906 158.59375 C 257.660156 156.175781 259.773438 151.335938 265.273438 147.289062 C 270.769531 143.238281 277.125 137.308594 277.125 137.308594 C 277.125 137.308594 276.386719 138.964844 275.316406 141.351562 C 273.453125 142.941406 271.476562 144.449219 270.398438 145.226562 C 267.75 147.144531 264.707031 149.488281 262.234375 152.320312 C 260.339844 154.496094 258.898438 156.796875 257.957031 159.164062 C 257.75 159.683594 257.5625 160.214844 257.398438 160.765625 " fill-opacity="1" fill-rule="nonzero"/></g></g></g></g><g clip-path="url(#cb5adec318)"><g clip-path="url(#8b96a587bd)"><g clip-path="url(#298854ed06)"><g clip-path="url(#1247695324)"><path fill="#8ebf49" d="M 260.820312 163.988281 C 260.199219 164.175781 259.636719 164.21875 259.195312 164.0625 C 258.078125 163.675781 257.601562 162.121094 257.398438 160.765625 C 257.5625 160.214844 257.75 159.683594 257.957031 159.164062 C 258.898438 156.796875 260.339844 154.496094 262.234375 152.320312 C 264.707031 149.488281 267.75 147.144531 270.398438 145.226562 C 271.476562 144.449219 273.453125 142.941406 275.316406 141.351562 C 274.910156 142.265625 274.453125 143.285156 273.96875 144.359375 C 273.855469 143.847656 273.847656 143.304688 273.871094 142.78125 C 273.65625 143.53125 273.605469 144.148438 273.734375 144.875 C 272.460938 147.710938 271.027344 150.863281 269.835938 153.433594 C 268.925781 151.539062 269.085938 149.441406 268.867188 147.382812 C 268.585938 149.207031 268.46875 151.085938 268.863281 152.890625 C 268.976562 153.414062 269.164062 153.902344 269.402344 154.367188 C 268.589844 156.113281 267.925781 157.496094 267.5625 158.175781 C 266.988281 159.238281 266.066406 160.355469 265.015625 161.328125 C 264.09375 160.121094 263.722656 158.558594 263.417969 157.101562 C 263.078125 155.507812 262.691406 153.84375 262.835938 152.199219 C 262.792969 152.289062 262.757812 152.378906 262.734375 152.472656 C 262.449219 153.511719 262.414062 154.652344 262.476562 155.714844 C 262.523438 156.507812 262.621094 157.328125 262.695312 158.160156 C 262.96875 159.550781 263.441406 160.871094 264.234375 162.007812 C 263.089844 162.941406 261.867188 163.675781 260.820312 163.988281 " fill-opacity="1" fill-rule="nonzero"/></g></g></g></g><g clip-path="url(#6b06c545c5)"><g clip-path="url(#cd8656ef23)"><g clip-path="url(#ae4c32afe9)"><g clip-path="url(#52eeb5ae7c)"><path fill="#4ba344" d="M 257.9375 165.023438 C 257.730469 164.792969 257.550781 164.539062 257.398438 164.269531 C 257.28125 163.726562 257.195312 163.167969 257.152344 162.585938 C 257.347656 163.429688 257.605469 164.238281 257.9375 165.023438 " fill-opacity="1" fill-rule="nonzero"/></g></g></g></g><g clip-path="url(#38ec116d23)"><g clip-path="url(#3048e4232c)"><g clip-path="url(#7e647367d2)"><g clip-path="url(#0f5fd3a0ae)"><path fill="#3c9f44" d="M 263.429688 174.96875 C 263.082031 174.183594 262.65625 173.433594 262.125 172.71875 C 261.691406 171.707031 261.097656 170.875 260.328125 169.945312 C 258.855469 168.167969 257.859375 166.339844 257.398438 164.269531 C 257.550781 164.539062 257.730469 164.792969 257.9375 165.023438 C 258.398438 166.109375 259.003906 167.152344 259.78125 168.171875 C 261.089844 169.886719 262.621094 171.488281 263.738281 173.335938 C 263.628906 173.863281 263.523438 174.40625 263.429688 174.96875 " fill-opacity="1" fill-rule="nonzero"/></g></g></g></g><g clip-path="url(#9a3420bd82)"><g clip-path="url(#975709c3a7)"><g clip-path="url(#bc98e992a4)"><g clip-path="url(#f6b6344412)"><path fill="#2b8b45" d="M 263.429688 174.96875 C 263.523438 174.40625 263.628906 173.863281 263.738281 173.335938 C 263.628906 173.863281 263.527344 174.40625 263.429688 174.96875 " fill-opacity="1" fill-rule="nonzero"/><path fill="#228546" d="M 263.429688 174.96875 C 263.527344 174.40625 263.628906 173.863281 263.738281 173.335938 C 263.742188 173.335938 263.742188 173.339844 263.742188 173.339844 C 263.628906 173.867188 263.527344 174.410156 263.429688 174.96875 " fill-opacity="1" fill-rule="nonzero"/></g></g></g></g><g clip-path="url(#fd383a6b63)"><g clip-path="url(#3ccb682dea)"><g clip-path="url(#d7eb5801b0)"><g clip-path="url(#109477f720)"><path fill="#4ba344" d="M 265.496094 163.558594 C 265.132812 163.148438 264.777344 162.730469 264.441406 162.292969 C 264.371094 162.199219 264.300781 162.105469 264.234375 162.007812 C 264.5 161.792969 264.761719 161.566406 265.015625 161.328125 C 265.066406 161.398438 265.121094 161.464844 265.175781 161.53125 C 265.5625 161.988281 265.964844 162.425781 266.363281 162.867188 C 266.082031 163.105469 265.789062 163.335938 265.496094 163.558594 " fill-opacity="1" fill-rule="nonzero"/></g></g></g></g><g clip-path="url(#13bac26d6d)"><g clip-path="url(#00b78e6c7c)"><g clip-path="url(#eb46d7a1b6)"><g clip-path="url(#9c2ce30315)"><path fill="#3c9f44" d="M 266.5625 164.75 C 266.210938 164.351562 265.847656 163.957031 265.496094 163.558594 C 265.789062 163.335938 266.082031 163.105469 266.363281 162.867188 C 266.605469 163.128906 266.84375 163.390625 267.078125 163.65625 C 266.90625 164.007812 266.734375 164.371094 266.5625 164.75 " fill-opacity="1" fill-rule="nonzero"/></g></g></g></g><g clip-path="url(#257815e77d)"><g clip-path="url(#1e1cf17af1)"><g clip-path="url(#489ebe92f2)"><g clip-path="url(#306265fef4)"><path fill="#2b8b45" d="M 266.5625 164.75 C 266.734375 164.371094 266.90625 164.007812 267.078125 163.65625 C 266.90625 164.007812 266.734375 164.375 266.5625 164.75 " fill-opacity="1" fill-rule="nonzero"/></g></g></g></g><g clip-path="url(#9b2b12b767)"><g clip-path="url(#26ec973aed)"><g clip-path="url(#7277802b2d)"><g clip-path="url(#14152e98ad)"><path fill="#52a748" d="M 264.234375 162.007812 C 263.441406 160.871094 262.96875 159.550781 262.695312 158.160156 C 262.621094 157.328125 262.523438 156.507812 262.476562 155.714844 C 262.414062 154.652344 262.449219 153.511719 262.734375 152.472656 C 262.757812 152.378906 262.792969 152.289062 262.835938 152.199219 C 262.691406 153.84375 263.078125 155.507812 263.417969 157.101562 C 263.722656 158.558594 264.09375 160.121094 265.015625 161.328125 C 264.761719 161.566406 264.5 161.792969 264.234375 162.007812 " fill-opacity="1" fill-rule="nonzero"/></g></g></g></g><g clip-path="url(#1f242bfc8c)"><g clip-path="url(#8979dcb3f7)"><g clip-path="url(#e5453ff9c7)"><g clip-path="url(#b526284efa)"><path fill="#4ba344" d="M 270.746094 156.335938 C 270.238281 155.71875 269.761719 155.070312 269.402344 154.367188 C 269.542969 154.066406 269.6875 153.753906 269.835938 153.433594 C 269.925781 153.617188 270.027344 153.800781 270.136719 153.984375 C 270.429688 154.460938 270.785156 154.949219 271.183594 155.417969 C 271.035156 155.726562 270.894531 156.03125 270.746094 156.335938 " fill-opacity="1" fill-rule="nonzero"/></g></g></g></g><g clip-path="url(#cfcb863c55)"><g clip-path="url(#d791c00119)"><g clip-path="url(#ea2d929205)"><g clip-path="url(#8edd3d351b)"><path fill="#52a748" d="M 269.402344 154.367188 C 269.164062 153.902344 268.976562 153.414062 268.863281 152.890625 C 268.46875 151.085938 268.585938 149.207031 268.867188 147.382812 C 269.085938 149.441406 268.925781 151.539062 269.835938 153.433594 C 269.6875 153.753906 269.542969 154.066406 269.402344 154.367188 " fill-opacity="1" fill-rule="nonzero"/></g></g></g></g><g clip-path="url(#99b5947ff8)"><g clip-path="url(#dcd0d4ea24)"><g clip-path="url(#8f853577f4)"><g clip-path="url(#ced6b2c0e5)"><path fill="#4ba344" d="M 274.667969 147.394531 C 274.316406 146.726562 274.015625 146.042969 273.832031 145.320312 C 273.792969 145.167969 273.761719 145.019531 273.734375 144.875 C 273.8125 144.703125 273.890625 144.527344 273.96875 144.359375 C 274.046875 144.710938 274.171875 145.050781 274.371094 145.355469 C 274.582031 145.6875 274.871094 146.03125 275.027344 146.410156 C 274.910156 146.738281 274.789062 147.066406 274.667969 147.394531 " fill-opacity="1" fill-rule="nonzero"/></g></g></g></g><g clip-path="url(#8ddeaad6ac)"><g clip-path="url(#c0be429dd3)"><g clip-path="url(#870a6326e1)"><g clip-path="url(#9ec4af087a)"><path fill="#52a748" d="M 273.734375 144.875 C 273.605469 144.148438 273.65625 143.53125 273.871094 142.78125 C 273.847656 143.304688 273.855469 143.847656 273.96875 144.359375 C 273.890625 144.527344 273.8125 144.703125 273.734375 144.875 " fill-opacity="1" fill-rule="nonzero"/></g></g></g></g><g clip-path="url(#9f9376e3c2)"><g clip-path="url(#77896160b1)"><g clip-path="url(#ff863638e9)"><g clip-path="url(#5d64caaeb1)"><path fill="#2a8545" d="M 277.980469 147.628906 C 277.960938 147.574219 277.945312 147.523438 277.929688 147.46875 C 278.144531 147.398438 278.351562 147.308594 278.554688 147.203125 C 278.417969 147.316406 278.28125 147.429688 278.144531 147.523438 C 278.089844 147.558594 278.035156 147.59375 277.980469 147.628906 " fill-opacity="1" fill-rule="nonzero"/></g></g></g></g><g clip-path="url(#40bac06b87)"><g clip-path="url(#b0db82008c)"><g clip-path="url(#bac3060567)"><g clip-path="url(#c35254175d)"><path fill="#4ba344" d="M 274.019531 149.019531 C 274.148438 148.703125 274.277344 148.390625 274.402344 148.070312 C 274.402344 148.070312 274.40625 148.070312 274.40625 148.070312 C 274.285156 148.386719 274.160156 148.699219 274.03125 149.011719 C 274.027344 149.015625 274.023438 149.019531 274.019531 149.019531 " fill-opacity="1" fill-rule="nonzero"/></g></g></g></g><g clip-path="url(#9ea2b0f39a)"><g clip-path="url(#2f3bf84102)"><g clip-path="url(#918a1fe18b)"><g clip-path="url(#7ce4b2785f)"><path fill="#328c45" d="M 274.03125 149.011719 C 274.160156 148.699219 274.285156 148.386719 274.40625 148.070312 C 274.457031 148.054688 274.507812 148.039062 274.558594 148.023438 C 275.128906 147.851562 275.742188 147.773438 276.460938 147.734375 C 276.925781 147.707031 277.375 147.636719 277.804688 147.507812 C 277.847656 147.496094 277.886719 147.484375 277.929688 147.46875 C 277.945312 147.523438 277.960938 147.574219 277.980469 147.628906 C 277.660156 147.824219 277.335938 147.953125 277.007812 148.050781 C 276.710938 148.140625 276.40625 148.207031 276.101562 148.269531 C 275.792969 148.335938 275.484375 148.402344 275.171875 148.496094 C 275.035156 148.539062 274.898438 148.585938 274.757812 148.640625 C 274.503906 148.738281 274.261719 148.867188 274.03125 149.011719 " fill-opacity="1" fill-rule="nonzero"/></g></g></g></g><g clip-path="url(#656cc41cbb)"><g clip-path="url(#069f553f95)"><g clip-path="url(#0e03304bc0)"><g clip-path="url(#0a16ce598b)"><path fill="#248445" d="M 281.375 158.09375 C 281.324219 157.835938 281.273438 157.582031 281.214844 157.324219 C 281.796875 156.949219 282.320312 156.484375 282.726562 155.917969 C 282.507812 156.472656 282.238281 157 281.894531 157.484375 C 281.734375 157.710938 281.558594 157.914062 281.375 158.09375 " fill-opacity="1" fill-rule="nonzero"/></g></g></g></g><g clip-path="url(#56f79d2f6d)"><g clip-path="url(#bf9ad4bf85)"><g clip-path="url(#4361d9b65c)"><g clip-path="url(#5b950b8270)"><path fill="#4ba344" d="M 268.796875 160.296875 C 268.832031 160.230469 268.867188 160.167969 268.898438 160.101562 C 268.867188 160.167969 268.832031 160.230469 268.796875 160.296875 M 269.378906 159.152344 C 269.429688 159.046875 269.480469 158.9375 269.535156 158.832031 C 269.484375 158.9375 269.429688 159.046875 269.378906 159.152344 " fill-opacity="1" fill-rule="nonzero"/></g></g></g></g><g clip-path="url(#56c787be39)"><g clip-path="url(#2d745a39d6)"><g clip-path="url(#55d62fb7d1)"><g clip-path="url(#a3c09c0eca)"><path fill="#328c45" d="M 279.390625 159.21875 C 278.230469 159.570312 276.933594 159.59375 275.71875 159.542969 C 273.789062 159.46875 271.859375 159.257812 270.007812 159.816406 C 269.78125 159.886719 269.554688 159.964844 269.332031 160.058594 C 269.148438 160.132812 268.972656 160.214844 268.796875 160.296875 C 268.832031 160.230469 268.867188 160.167969 268.898438 160.101562 C 269.046875 159.816406 269.1875 159.539062 269.320312 159.265625 C 269.339844 159.230469 269.359375 159.191406 269.378906 159.152344 C 269.429688 159.046875 269.484375 158.9375 269.535156 158.832031 C 269.941406 158.75 270.351562 158.679688 270.769531 158.652344 C 271.816406 158.582031 272.855469 158.691406 273.902344 158.707031 C 275.675781 158.730469 277.507812 158.710938 279.226562 158.214844 C 279.257812 158.203125 279.285156 158.195312 279.316406 158.1875 C 279.871094 158.019531 280.417969 157.792969 280.925781 157.5 C 280.960938 157.800781 280.988281 158.101562 281.015625 158.40625 C 280.527344 158.78125 279.976562 159.042969 279.390625 159.21875 " fill-opacity="1" fill-rule="nonzero"/></g></g></g></g><g clip-path="url(#3640617d0f)"><g clip-path="url(#567f5a5bca)"><g clip-path="url(#b437629c6b)"><g clip-path="url(#44ec05ce81)"><path fill="#2b8b45" d="M 281.015625 158.40625 C 280.988281 158.101562 280.960938 157.800781 280.925781 157.5 C 281.023438 157.445312 281.121094 157.386719 281.214844 157.324219 C 281.273438 157.582031 281.324219 157.835938 281.375 158.09375 C 281.257812 158.207031 281.140625 158.308594 281.015625 158.40625 " fill-opacity="1" fill-rule="nonzero"/></g></g></g></g><g clip-path="url(#27f796c204)"><g clip-path="url(#d12e1c4556)"><g clip-path="url(#23bbbf95cf)"><g clip-path="url(#21ba962198)"><path fill="#328c45" d="M 278.382812 168.003906 C 275.890625 168.753906 272.921875 168.472656 270.253906 168.746094 C 270.125 168.492188 270.007812 168.234375 269.902344 167.972656 C 271.050781 167.855469 272.207031 167.832031 273.386719 167.859375 C 275.375 167.910156 277.84375 167.863281 279.976562 167.222656 C 279.960938 167.265625 279.945312 167.308594 279.929688 167.351562 C 279.441406 167.628906 278.921875 167.839844 278.382812 168.003906 " fill-opacity="1" fill-rule="nonzero"/></g></g></g></g><g clip-path="url(#0fe9eee149)"><g clip-path="url(#af39013253)"><g clip-path="url(#5354a0986e)"><g clip-path="url(#1e99adb115)"><path fill="#2b8b45" d="M 279.929688 167.351562 C 279.945312 167.308594 279.960938 167.265625 279.976562 167.222656 C 279.984375 167.222656 279.992188 167.21875 279.996094 167.214844 C 280.105469 167.183594 280.210938 167.152344 280.3125 167.117188 C 280.1875 167.199219 280.058594 167.277344 279.929688 167.351562 M 264.179688 171.453125 C 264.359375 170.761719 264.550781 170.101562 264.75 169.46875 C 264.75 169.464844 264.75 169.464844 264.75 169.464844 C 264.550781 170.097656 264.359375 170.761719 264.183594 171.453125 C 264.179688 171.453125 264.179688 171.453125 264.179688 171.453125 M 264.769531 170.851562 C 264.777344 170.503906 264.800781 170.15625 264.835938 169.808594 C 264.847656 169.667969 264.863281 169.523438 264.878906 169.382812 C 265.367188 169.066406 265.90625 168.8125 266.515625 168.628906 C 266.535156 168.621094 266.554688 168.617188 266.574219 168.609375 C 267.683594 168.285156 268.789062 168.085938 269.902344 167.972656 C 270.007812 168.234375 270.125 168.492188 270.253906 168.746094 C 269.871094 168.785156 269.496094 168.832031 269.132812 168.898438 C 268.714844 168.976562 268.292969 169.074219 267.878906 169.199219 C 266.746094 169.542969 265.644531 170.078125 264.769531 170.851562 " fill-opacity="1" fill-rule="nonzero"/></g></g></g></g><g clip-path="url(#6fb0b89f76)"><g clip-path="url(#cef6a10017)"><g clip-path="url(#4f9ce34b74)"><g clip-path="url(#6366072045)"><path fill="#228546" d="M 264.183594 171.453125 C 264.359375 170.761719 264.550781 170.097656 264.75 169.464844 C 264.792969 169.4375 264.835938 169.410156 264.878906 169.382812 C 264.863281 169.523438 264.847656 169.667969 264.835938 169.808594 C 264.800781 170.15625 264.777344 170.503906 264.769531 170.851562 C 264.558594 171.039062 264.363281 171.238281 264.183594 171.453125 " fill-opacity="1" fill-rule="nonzero"/></g></g></g></g><g clip-path="url(#58b808d5c3)"><g clip-path="url(#fb8cb91a7e)"><g clip-path="url(#3ade582aeb)"><g clip-path="url(#75ef1a2b8b)"><path fill="#2eb142" d="M 262.734375 182.019531 C 262.734375 182.019531 262.738281 181.828125 262.742188 181.460938 C 262.738281 181.09375 262.757812 180.558594 262.78125 179.878906 C 262.796875 179.535156 262.820312 179.160156 262.84375 178.746094 C 262.875 178.335938 262.910156 177.890625 262.957031 177.417969 C 262.980469 177.183594 263.007812 176.9375 263.035156 176.6875 C 263.066406 176.433594 263.097656 176.175781 263.128906 175.910156 C 263.160156 175.644531 263.203125 175.375 263.242188 175.097656 C 263.28125 174.816406 263.328125 174.535156 263.382812 174.246094 C 263.585938 173.089844 263.851562 171.84375 264.199219 170.542969 C 264.289062 170.214844 264.382812 169.886719 264.480469 169.554688 C 264.585938 169.226562 264.6875 168.890625 264.800781 168.554688 C 265.027344 167.882812 265.273438 167.203125 265.546875 166.519531 C 266.09375 165.152344 266.746094 163.773438 267.457031 162.40625 C 267.8125 161.722656 268.179688 161.039062 268.542969 160.351562 C 268.910156 159.667969 269.257812 158.972656 269.605469 158.269531 C 270.300781 156.871094 270.984375 155.46875 271.640625 154.082031 C 271.960938 153.382812 272.292969 152.695312 272.597656 152.007812 C 272.75 151.664062 272.902344 151.324219 273.054688 150.984375 C 273.203125 150.644531 273.347656 150.304688 273.492188 149.96875 C 274.070312 148.625 274.578125 147.308594 275.046875 146.050781 C 275.28125 145.425781 275.480469 144.804688 275.667969 144.203125 C 275.855469 143.601562 276.03125 143.019531 276.199219 142.457031 C 276.867188 140.214844 277.398438 138.339844 277.777344 137.027344 C 277.964844 136.371094 278.113281 135.855469 278.214844 135.503906 C 278.265625 135.328125 278.304688 135.195312 278.332031 135.101562 C 278.363281 135.011719 278.378906 134.964844 278.378906 134.964844 L 278.417969 134.984375 C 278.417969 134.984375 278.40625 135.027344 278.378906 135.117188 C 278.351562 135.207031 278.316406 135.34375 278.265625 135.519531 C 278.171875 135.871094 278.03125 136.386719 277.851562 137.046875 C 277.492188 138.363281 276.988281 140.25 276.351562 142.503906 C 276.195312 143.066406 276.027344 143.652344 275.847656 144.257812 C 275.667969 144.863281 275.476562 145.488281 275.25 146.121094 C 274.800781 147.390625 274.300781 148.714844 273.734375 150.070312 C 273.59375 150.40625 273.453125 150.746094 273.308594 151.089844 C 273.160156 151.433594 273.011719 151.777344 272.859375 152.121094 C 272.566406 152.816406 272.242188 153.507812 271.925781 154.210938 C 271.28125 155.609375 270.613281 157.023438 269.933594 158.429688 C 269.597656 159.132812 269.257812 159.839844 268.898438 160.535156 C 268.546875 161.226562 268.1875 161.914062 267.84375 162.601562 C 267.160156 163.972656 266.523438 165.339844 265.992188 166.695312 C 265.441406 168.042969 265 169.378906 264.621094 170.65625 C 264.246094 171.9375 263.953125 173.164062 263.726562 174.308594 C 263.503906 175.453125 263.316406 176.503906 263.195312 177.445312 C 263.066406 178.386719 262.980469 179.207031 262.910156 179.886719 C 262.878906 180.222656 262.851562 180.527344 262.828125 180.789062 C 262.808594 181.054688 262.792969 181.28125 262.777344 181.460938 C 262.75 181.828125 262.734375 182.019531 262.734375 182.019531 " fill-opacity="1" fill-rule="nonzero"/></g></g></g></g><g clip-path="url(#9fa06b9ea4)"><g clip-path="url(#06d813376a)"><g clip-path="url(#1a1b4e405b)"><g clip-path="url(#6c207502e1)"><path fill="#5da046" d="M 274.394531 157.347656 C 273.398438 157.542969 272.425781 157.617188 271.472656 157.828125 C 271.46875 157.792969 271.460938 157.757812 271.457031 157.722656 C 271.578125 157.472656 273.71875 152.460938 274.574219 150.308594 C 274.671875 151.070312 274.890625 151.832031 275.082031 152.460938 C 275.453125 153.703125 276.160156 155.65625 275.117188 156.78125 C 274.890625 157.023438 274.648438 157.207031 274.394531 157.347656 " fill-opacity="1" fill-rule="nonzero"/></g></g></g></g><g clip-path="url(#6c6e85c7ba)"><g clip-path="url(#9a833110c7)"><g clip-path="url(#706b6642a7)"><g clip-path="url(#ad0614de31)"><path fill="#5da046" d="M 271.851562 167.277344 C 271.257812 167.453125 270.628906 167.472656 270.007812 167.507812 C 269.917969 167.511719 269.824219 167.515625 269.730469 167.515625 C 269.589844 167.113281 269.46875 166.710938 269.367188 166.316406 C 269.011719 164.933594 268.777344 163.523438 268.683594 162.105469 C 268.960938 161.574219 269.230469 161.078125 269.425781 160.765625 C 269.621094 160.453125 270.074219 160.207031 270.601562 160.046875 C 271.742188 159.707031 273.230469 159.75 273.265625 160.3125 C 273.3125 161.144531 271.769531 162.625 272.144531 167.09375 C 272.148438 167.144531 272.109375 167.1875 272.0625 167.203125 C 271.992188 167.230469 271.921875 167.253906 271.851562 167.277344 " fill-opacity="1" fill-rule="nonzero"/></g></g></g></g><g clip-path="url(#2e2dfe1e31)"><g clip-path="url(#29456ca392)"><g clip-path="url(#f10c892e28)"><g clip-path="url(#20011af182)"><path fill="#509d42" d="M 269.730469 167.515625 C 269.066406 167.539062 268.328125 167.523438 267.703125 167.710938 C 267.636719 167.730469 267.574219 167.753906 267.511719 167.777344 C 267.464844 167.792969 267.417969 167.808594 267.375 167.824219 C 266.375 168.125 266.628906 166.929688 266.84375 166.273438 C 267.074219 165.570312 267.382812 164.886719 267.671875 164.207031 C 267.878906 163.71875 268.285156 162.875 268.683594 162.105469 C 268.777344 163.523438 269.011719 164.933594 269.367188 166.316406 C 269.46875 166.710938 269.589844 167.113281 269.730469 167.515625 " fill-opacity="1" fill-rule="nonzero"/></g></g></g></g><g clip-path="url(#19cd36b943)"><g clip-path="url(#efa8adb7c6)"><g clip-path="url(#dec6f645c6)"><g clip-path="url(#c53d1905d6)"><path fill="#5da046" d="M 271.277344 170.242188 C 271.0625 170.007812 270.863281 169.753906 270.683594 169.488281 C 270.882812 169.570312 271.054688 169.707031 271.175781 169.910156 C 271.234375 170.011719 271.265625 170.125 271.277344 170.242188 " fill-opacity="1" fill-rule="nonzero"/></g></g></g></g><g clip-path="url(#e6165674e1)"><g clip-path="url(#2a57cec767)"><g clip-path="url(#3e10d83f6e)"><g clip-path="url(#c8200bee2f)"><path fill="#509d42" d="M 272.804688 176.730469 C 272.503906 176.820312 272.203125 176.890625 271.894531 176.941406 C 270.0625 177.25 268.132812 176.558594 266.640625 175.511719 C 265.832031 174.945312 265.351562 174.21875 265.078125 173.40625 C 265.222656 172.5625 265.386719 171.730469 265.898438 171.011719 C 266.375 170.339844 267.148438 169.941406 267.953125 169.699219 C 268.292969 169.597656 268.640625 169.519531 268.972656 169.464844 C 269.484375 169.382812 270.175781 169.269531 270.683594 169.488281 C 270.863281 169.753906 271.0625 170.007812 271.277344 170.242188 C 271.308594 170.550781 271.207031 170.902344 271.132812 171.160156 C 270.902344 171.945312 270.519531 172.648438 270.355469 173.460938 C 270.179688 174.347656 270.386719 175.367188 271.011719 176.039062 C 271.5 176.558594 272.242188 176.675781 272.921875 176.671875 C 272.9375 176.671875 272.953125 176.675781 272.960938 176.679688 C 272.910156 176.695312 272.855469 176.714844 272.804688 176.730469 " fill-opacity="1" fill-rule="nonzero"/></g></g></g></g><g clip-path="url(#35a871427d)"><g clip-path="url(#af0f351eeb)"><g clip-path="url(#e7d4fb2240)"><g clip-path="url(#f868a9fe9b)"><path fill="#3c9444" d="M 270.347656 178.003906 C 269.71875 178.195312 269.070312 178.324219 268.449219 178.414062 C 267.433594 178.554688 265.929688 178.742188 265.066406 178.023438 C 264.082031 177.199219 264.527344 175.785156 264.8125 174.734375 C 264.929688 174.300781 265 173.851562 265.078125 173.40625 C 265.351562 174.21875 265.832031 174.945312 266.640625 175.511719 C 268.132812 176.558594 270.0625 177.25 271.894531 176.941406 C 272.203125 176.890625 272.503906 176.820312 272.804688 176.730469 C 272.855469 176.714844 272.910156 176.695312 272.960938 176.679688 C 273.035156 176.707031 273.03125 176.824219 272.945312 176.851562 C 272.941406 176.851562 272.9375 176.851562 272.929688 176.851562 C 272.851562 176.867188 272.777344 176.871094 272.699219 176.878906 C 272.695312 176.890625 272.6875 176.902344 272.675781 176.910156 C 271.992188 177.398438 271.183594 177.75 270.347656 178.003906 " fill-opacity="1" fill-rule="nonzero"/></g></g></g></g></svg>